<?xml version="1.0" encoding="UTF-8"?>
<svg id="Capa_1" data-name="Capa 1" xmlns="http://www.w3.org/2000/svg" viewBox="0 0 64 64">
  <defs>
    <style>
      .cls-1 {
        fill: #d32a61;
      }
    </style>
  </defs>
  <path class="cls-1" d="M62.87,41.26c-.64-1.29-1.53-2.13-2.02-2.54,0,0,0-.01,0-.02,1.35-1.88,1.54-3.85,1.46-5.2-.11-1.79-.77-3.52-1.82-4.72-.15-.17-.29-.32-.44-.46,0,0,0-.01,0-.02.3-.58.5-1.25.57-1.97.53-5.62-3.27-8.3-5.14-8.81-1.41-.39-2.71-.97-3.86-1.74-1.63-1.09-3.12-2.42-4.44-3.95-2.76-3.21-6.04-3.38-8.3-2.97-2.42.45-3.96,1.49-4.03,1.54-.01,0-.36.25-.37.26-.36.31-.89.31-1.24,0l-.1-.08c-.07-.06-1.71-1.47-4.14-2.03-2.26-.52-5.65-.37-8.95,3.28-.5.55-1.08,1.14-1.7,1.76-.37.37-.75.75-1.12,1.14-.25.22-4.97,4.28-7.54,1.49-.11-.12-1.03-1.2.17-2.64.1-.12.14-.3.08-.45-.09-.23-.34-.32-.53-.21-.08.04-1.97,1.05-2.5,2.78-.25.8-.17,1.62.24,2.45.02.04.35.68,1.07,1.11.01,0,.01.02,0,.03-.47.19-1.01.44-1.55.8-1.51.99-3.87,3.84-4.27,7.6-.11.99.18,3.29,1.29,4.71,0,0,0,.02,0,.02-.13.11-.26.23-.39.35-2.2,2.08-3.94,6.89-3.03,11.36.5,2.44,1.97,5.64,6.15,7.06,0,0,0,0,0,0,.38.45,2.09,2.34,4.76,3.54,1.22.55,2.74.98,4.48.98,2.1,0,4.54-.65,7.16-2.5,3.32,1.44,7.71,2.17,13.1,2.17,4.04,0,7.51-.67,10.31-2,0,0,.02,0,.03-.01.77.46,3.3,1.9,6.11,2.19,4.44.45,8.3-1.68,10.48-5.67,2.11-3.87.9-6.9.05-8.61ZM2.83,31.18s0-.02,0-.03h0"/>
  <path class="cls-1" d="M35.78,43.79c.19,0,.37-.03.55-.07-.07.04-.14.09-.21.13.86.13,1.82-.13,2.33-.9.44-.74.2-1.57-.27-2.24-.26-1.23-1.23-2.51-2.41-2.51-1.37,0-2.47,1.74-2.47,3.1s1.11,2.47,2.47,2.47Z"/>
  <path class="cls-1" d="M31.3,47.98c.12.07,1.74.77,4.09.77h0c1.22,0,2.48-.1,4.11-.78.25-.1.28-.46.12-.68-.16-.22-.46-.28-.68-.12-3.24,2.28-7.08.01-7.12-.02-.23-.14-.53-.07-.68.16-.14.23-.07.53.16.68Z"/>
  <path class="cls-1" d="M23.21,22.28s0,0,0,0c0,0,0,0,.01,0h0Z"/>
</svg>