<?xml version="1.0" encoding="UTF-8"?>
<svg id="Capa_1" data-name="Capa 1" xmlns="http://www.w3.org/2000/svg" viewBox="0 0 64 64">
  <defs>
    <style>
      .cls-1 {
        fill: #d32a61;
      }
    </style>
  </defs>
  <path class="cls-1" d="M10.63,20.11c0,2.56-1.97,4.49-4.59,4.49H1.97v5.34H.06v-14.34h5.98c2.62,0,4.59,1.93,4.59,4.51h0ZM8.68,20.11c0-1.56-1.14-2.72-2.66-2.72H1.97v5.42h4.05c1.52,0,2.66-1.14,2.66-2.7Z"/>
  <path class="cls-1" d="M23.51,28.21v1.72h-.56c-1.48,0-2.35-.73-2.47-2.06-.87,1.41-2.35,2.31-4.13,2.31-3.03,0-5.3-2.39-5.3-5.55s2.26-5.55,5.3-5.55c1.77,0,3.24.87,4.11,2.26v-2.01h1.79v7.81c0,.64.42,1.06,1.06,1.06h.21ZM20.46,24.64c0-2.18-1.62-3.82-3.78-3.82s-3.8,1.64-3.8,3.82,1.62,3.82,3.8,3.82,3.78-1.64,3.78-3.82Z"/>
  <path class="cls-1" d="M35.88,28.21v1.72h-.54c-1.6,0-2.49-.85-2.49-2.41v-3.57c0-1.89-1.21-3.14-3.1-3.14s-3.24,1.27-3.24,3.18v5.94h-1.79v-10.6h1.79v1.7c.81-1.25,2.16-1.95,3.82-1.95,2.58,0,4.3,1.7,4.3,4.3v3.76c0,.64.42,1.06,1.06,1.06h.19,0Z"/>
  <path class="cls-1" d="M51.25,22.77c0,4.09-3.12,7.17-7.27,7.17h-5.53v-14.34h5.53c4.16,0,7.27,3.07,7.27,7.17h0ZM49.3,22.77c0-3.07-2.31-5.38-5.34-5.38h-3.6v10.76h3.6c3.03,0,5.34-2.31,5.34-5.38h0Z"/>
  <path class="cls-1" d="M63.61,25.38h-9.31c.31,1.87,1.79,3.16,3.8,3.16,1.48,0,2.76-.71,3.36-1.77h1.99c-.83,2.04-2.89,3.41-5.38,3.41-3.26,0-5.69-2.39-5.69-5.55s2.43-5.55,5.63-5.55,5.63,2.39,5.63,5.55c0,.21-.02.54-.04.75h0ZM54.32,23.78h7.42c-.33-1.81-1.83-3.05-3.72-3.05s-3.34,1.25-3.7,3.05Z"/>
  <path class="cls-1" d="M15.29,33.82v14.34h-1.89v-11.2l-5.03,11.2h-1.39l-5.01-11.2v11.2H.06v-14.34h2.52l5.13,11.49,5.13-11.49h2.45,0Z"/>
  <path class="cls-1" d="M16.1,42.85c0-3.16,2.43-5.55,5.65-5.55s5.63,2.39,5.63,5.55-2.43,5.55-5.63,5.55-5.65-2.39-5.65-5.55h0ZM25.53,42.85c0-2.18-1.62-3.82-3.78-3.82s-3.8,1.64-3.8,3.82,1.62,3.82,3.8,3.82,3.78-1.64,3.78-3.82Z"/>
  <path class="cls-1" d="M38.64,46.43v1.72h-.56c-2.41,0-3.76-1.48-3.76-3.87,0-1.31.48-2.74,1.31-4.2l-4.78-.56-1.64,8.62h-1.77l1.77-9.02c-.52-.23-.83-.75-.83-1.33,0-.75.52-1.27,1.29-1.27s1.33.54,1.35,1.31l7.17.81v.44c-1.29,1.89-2.01,3.58-2.01,5.01s.77,2.33,2.06,2.33h.42Z"/>
  <path class="cls-1" d="M51.56,46.43v1.72h-.56c-1.48,0-2.35-.73-2.47-2.06-.87,1.41-2.35,2.31-4.13,2.31-3.03,0-5.3-2.39-5.3-5.55s2.26-5.55,5.3-5.55c1.77,0,3.24.87,4.11,2.26v-2.01h1.79v7.81c0,.64.42,1.06,1.06,1.06h.21ZM48.51,42.85c0-2.18-1.62-3.82-3.78-3.82s-3.8,1.64-3.8,3.82,1.62,3.82,3.8,3.82,3.78-1.64,3.78-3.82Z"/>
  <path class="cls-1" d="M63.94,44.18c0,2.52-1.66,4.22-4.32,4.22-1.87,0-3.53-.83-4.51-2.12l-.89,1.87h-1.87l5.03-10.6h2.06c.89,2.85,4.51,2.97,4.51,6.63h0ZM62.1,44.16c0-2.18-2.54-2.62-3.72-4.82l-2.58,5.46c.66,1.12,2.04,1.87,3.51,1.87,1.64,0,2.78-.98,2.78-2.52h0Z"/>
</svg>