<?xml version="1.0" encoding="UTF-8"?>
<svg id="Capa_1" data-name="Capa 1" xmlns="http://www.w3.org/2000/svg" viewBox="0 0 400 200">
  <defs>
    <style>
      .cls-1 {
        fill: #e6e2d7;
      }

      .cls-2 {
        fill: #812c19;
      }
    </style>
  </defs>
  <path class="cls-1" d="M124.13,37.61c3.08-13.48,13.24-24.31,25.97-29.34,8.75-3.45,23.48-3.97,33.1-4.32,15.28-.56,34.94-.96,50.06.02,12.37.8,27.93,5.17,35.95,14.94,8.7,10.6,14.09,24.24,14.31,38.04,3.92-3.31,8.04-6.83,12.88-8.78,3.89-1.57,8.49-2.12,12.46-3.52,12.96-4.58,21.03-15.42,29.31-25.78,5.47-6.84,7.03-13.21,17.96-10.35,24.8,6.49,9.89,43.66-1.89,56.29,2.24,9.81.06,23.9-11.01,27.05,3.98,11.71-6.08,21.29-16.42,24.57-13.17,4.19-20.96-3.08-32.58-3.97-1.79-.14-6.95.13-7.36,2.3-.01,6.32-.49,12.62-1.32,18.87-3.36,25.19-8.26,49.54-34.31,59.89-9.51,3.77-15.48,2.26-25.11,2.18-19.75-.16-41.65,1.81-60.99.44-15.32-1.09-32.97-11-38.49-25.85-2.76-7.44-5.08-18.31-6.59-26.21-1.54-8.05-2.64-16.28-3.08-24.47-13.45,5.4-34.64.26-36.36-16.42-7.59-3.37-16.93-8.96-19.69-17.32-.98-2.97-1.31-6.42-2.1-9.47-10.24-5.49-15.96-13.23-20.86-23.5-5.9-12.37-14.44-40.41,2.05-47.89,10.68-4.84,15.42,2.19,23.54,6.74,13.44,7.52,31.6,15.92,46.05,21.24,4.75,1.75,9.74,2.93,14.51,4.62ZM281.83,63.68c-2.01-12.23-3.35-26.02-10.34-36.55-8.4-12.65-21.87-19.44-36.95-20.24-20.82-1.11-42.61.88-63.53,0-9.01,1.24-17.49,2.51-25.23,7.58-9.76,6.39-16.8,16.73-19.13,28.19-6.66-2.38-13.22-5.08-19.75-7.79-11.31-4.7-23.33-9.63-34.36-14.84-6.15-2.9-11.2-6.58-16.95-9.54-19.6-10.11-22.21,11.12-20.13,25.17,2.37,16.01,12.55,30.91,26.76,38.63.38,12.61,8.73,23.31,20.7,27.03,2.86,11.07,13.67,18.61,25.03,17.9,4.46-.28,8.55-2.15,12.82-3.2.77.57.31,3.9.41,5.07,2.82,33.49,7.34,69.03,48.55,71.72,22.05-1.11,45.43,1.4,67.32,0,20.21-1.3,35.78-15.76,40.79-34.91,3.91-14.94,5.45-30.67,6.51-46.05,6.22-8.02,16.44-.48,23.87,1.34,4.82,1.18,11.24,1.45,16.09.36,7.31-1.65,16.06-10.39,16.39-18.09.06-1.35-.59-4.05-.23-4.84.39-.85,4.72-4.79,5.86-6.36,2.68-3.68,4.49-7.79,4.87-12.38.2-2.46-.5-7.19.09-9.16.14-.47,3.23-4.28,3.88-5.37,6.02-10.07,17.7-38.8,1.38-44.63-10.88-3.89-15.67,7.99-20.91,14.58-3.97,4.99-10.09,11.3-15.16,15.12-10.37,7.81-23.83,7.71-34.23,17.08-.63.56-3.95,4.76-4.42,4.19Z"/>
  <path class="cls-2" d="M281.83,63.68c.48.57,3.8-3.63,4.42-4.19,10.4-9.37,23.85-9.27,34.23-17.08,5.08-3.82,11.19-10.13,15.16-15.12,5.25-6.6,10.04-18.47,20.91-14.58,16.32,5.83,4.63,34.56-1.38,44.63-.65,1.09-3.74,4.9-3.88,5.37-.59,1.97.11,6.7-.09,9.16-.38,4.59-2.19,8.7-4.87,12.38-1.14,1.57-5.47,5.51-5.86,6.36-.36.79.29,3.49.23,4.84-.33,7.7-9.09,16.45-16.39,18.09-4.85,1.09-11.26.82-16.09-.36-7.44-1.82-17.66-9.36-23.87-1.34-1.06,15.38-2.61,31.11-6.51,46.05-5,19.15-20.58,33.61-40.79,34.91-21.9,1.41-45.27-1.1-67.32,0-41.21-2.7-45.73-38.24-48.55-71.72-.1-1.17.36-4.5-.41-5.07-4.27,1.05-8.36,2.92-12.82,3.2-11.36.72-22.17-6.83-25.03-17.9-11.97-3.72-20.31-14.42-20.7-27.03-14.21-7.72-24.39-22.62-26.76-38.63-2.08-14.06.52-35.29,20.13-25.17,5.74,2.96,10.8,6.64,16.95,9.54,11.04,5.21,23.05,10.14,34.36,14.84,6.53,2.71,13.09,5.42,19.75,7.79,2.33-11.46,9.37-21.8,19.13-28.19,7.73-5.06,16.21-6.33,25.23-7.58,20.92.88,42.71-1.11,63.53,0,15.08.8,28.55,7.59,36.95,20.24,6.99,10.52,8.33,24.32,10.34,36.55ZM201.93,14.06h-25.23l6.73,5.25c8.05,7.54,9.44,13.34,13.05,23.11.17.45.18,1.01.81,1.07.59-2.79,1.49-5.51,1.97-8.33.4-2.32.91-5.57.97-7.86.08-3.12-1.62-9.78,0-11.78.58-.73,1.49-.75,1.69-1.46ZM238.31,14.06h-33.85c.4.82,1.53.96,2.11,1.88.75,1.19,1.17,5.14,1.27,6.72.61,9.47-1.65,20.03-5.41,28.69-.58,1.33-3.25,5.61-3.36,6.32-.25,1.61.99,6.67,1.18,8.75.46,4.97.68,9.97,1.27,14.92.93-.47,1.32-1.77,1.75-2.66,2.91-6.01,5.23-13.49,6.96-19.96.9-3.38.72-10.19,5-10.6,6.71-.65,3.03,10.55,2.15,13.97-3.14,12.21-8.64,24.49-15.34,35.12l-.94,27.44c.65-.18,1-.86,1.34-1.39,4.24-6.61,8.57-16.62,11.28-24.04.89-2.44,2.25-8.96,3.35-10.53,2.12-3.02,7.25-1.46,7.13,2.49-.07,2.38-2.52,8.72-3.44,11.29-3.45,9.66-8.29,19.27-13.6,28.04-1.9,3.13-6.8,9.14-7.92,11.84-3.13,7.58-1.42,20.85-7.74,28.42l-4.7,6.86c.38.36,3.12-1.63,3.67-2.01,6.5-4.48,13.45-11.91,17.43-18.73,1.27-2.19,4.61-10.75,5.59-11.65,2.48-2.27,6.66-.55,6.55,3.15-.09,3.24-5.5,12.71-7.5,15.67-6.49,9.62-13.33,14.65-22.68,21.04-.38.26-.77-.07-.55.94h13.25c.31,0,4.94-2.36,5.64-2.77,2.84-1.67,7.63-7.75,10.35-2.28,1.04,2.09.05,3.13-.64,5.05h13.67c1.06,0-.13-2.18-.19-2.78-.31-3.39,3.37-5.51,6.09-3.53,1.81,1.32,1.97,5.04,5.03,5.07,4.43.03,12.41-4.86,15.74-7.79-4.46-6.33-8.73-13.41-11.81-20.54-.6-1.4-2.34-5.19-2.44-6.43-.29-3.53,4.65-6.02,7.14-2.47,1.77,4.31,3.61,8.58,5.81,12.69.99,1.86,5.02,9.19,6.18,10.22.41.37.64.55,1.24.45,6.59-8.74,7.93-19.93,9.83-30.41-11.34-12.47-16.84-29.47-23.41-44.78-.09-4.47,4.78-6.64,7.43-2.35,2.83,4.59,5.44,13.88,7.98,19.36,2.69,5.8,5.88,11.35,8.91,16.95.94.82,1.13-2.31,1.2-2.78,1.62-10.66,2.24-28.36,1.33-39.07-.09-1.07-.26-2.11-.68-3.11-8.04-8.32-16.86-16.16-23.47-25.73-.83-1.21-2.65-3.48-2.8-4.78-.37-3.15,2.49-5.32,5.48-4.21,6.16,6.79,11.71,16.16,18.93,21.86.42.33.54.81,1.26.62l-4.91-27.23c-6.94-4.59-13.66-9.91-18.82-16.53-1.74-2.23-4.67-5.63-3.92-8.48l1.79-2.42c-1.6-1.4-9.93-3.56-12.2-3.78ZM179.22,101.11v-9.04c0-.84-.4-4.85-.62-5.69-.37-1.4-3.17-5-4.21-6.3-15.22-19.06-45.59-27.59-67.49-36.8-14.66-6.17-33.77-13.11-47.24-20.88-6.73-3.88-15.7-13.51-17.06,1.19-1.96,21.2,12.39,41.99,32.66,47.98,11.52,3.4,22.01,1.35,33.52,2.65,3.64.41,11.03.85,9.28,6.33-1.39,4.35-7.73,1.53-10.96,1.25-9.57-.85-19.3.32-28.81-1.47-2.58-.49-5-1.35-7.56-1.9,1.16,5.01,4.5,10.01,8.86,12.79,7.41,4.72,20.4,5.49,28.74,3.16,2.72-.76,9.07-5.02,10.51-.38s-2.99,6.13-6.5,7.33c-1.78.61-6.51,1.91-8.18,1.91h-11.99c3.98,6.31,10.34,9.23,17.76,7.88,14.19-2.57,23.66-16.01,38.07-18.28,8.76-1.38,17.91.6,25.61,4.86.7.39,5.32,3.77,5.61,3.44ZM132.96,109.1c-.53-.55-4.63,2.49-5.32,3.12,1.21,14.73,2.3,30.41,6.03,44.74,4.1,15.71,20.67,33.44,37.85,24.12,15.61-8.47,18.45-22.87,20.69-39.02,4.03-28.97,4.75-71.07-2.68-99.41-4.03-15.36-21.3-33.02-37.92-23.62-9.37,5.3-16.77,15.53-18.25,26.28l7.17,2.8c4.61-17,20.49-32.44,34.41-12.75,18.61,26.32,17.3,97.86,2.4,125.88-10.56,19.85-25.99,15.85-34.64-2.8-6.89-14.86-8.99-33.13-9.73-49.35ZM343.23,71.25l-12.88,7.93c-3.53,1.45-7.1,2.99-10.82,3.9-1.9.46-8.51,1.86-10.05,1.56s-3.35-2.69-3.24-4.32c.28-4.19,5.91-3.56,8.83-4.22,12.73-2.87,25.16-10.39,32.54-21.29,4.44-6.56,12.59-25.42,8.33-32.64-4.5-7.62-11.28,6.23-13.8,9.51-5.54,7.21-15.83,17.42-23.99,21.43-10.62,5.22-21.48,5.11-29.58,15.42-6.2,7.89-4.14,15.58-3.78,24.79.11,2.73-.12,5.49-.02,8.22,4.1-1.03,7.24-1.53,11.45-.72,5.44,1.04,11.19,4.82,16.52,5.35,8.95.89,15.61-.56,19.55-9.25-6.7,3.77-14.73,5.71-22.29,3.58-2.84-.8-5.21-2.75-3.88-6,1.64-4,6.24-1.19,9.15-.96,7.11.56,14.43-3.57,19.55-8.19,3.83-3.45,8.39-8.7,8.4-14.09ZM265.01,30.46c-1.36-3.05-4.3-5.36-6.72-7.57.47,1.25,1.83,2.79,2.72,3.79,1.19,1.34,2.61,2.64,4,3.78ZM166.6,61.99l4.04-14.51c-.53-1.47-4.49-9.38-5.91-9.04-3.98,5.13-6.1,11.36-8.12,17.47l9.99,6.08ZM150.62,52.75l5.04-13.46c-2.68,3.25-5.52,8.41-6.66,12.48-.23.82,1.07.89,1.62.98ZM177.12,70.82c-.96-3.22-1.16-6.62-2.14-9.84-.14-.48-.15-1.56-.8-1.5l-1.59,7.31c.52.65,3.93,4.53,4.53,4.04ZM162.77,101.58c-3.67-1.14-7.46-1.53-11.3-1.32.73,20.87,2.62,43.45,13.25,61.83,1.71.02,5.22-7.38,5.92-9.04-5.74-16.48-7.73-34.04-7.87-51.46ZM144.74,101.95c-3.39-.25-2.62,3.62-2.54,6.12.37,11.23,2.14,24.39,5.19,35.18,1.82,6.45,4.37,14.07,9.13,18.83-8.64-18.66-11.46-39.68-11.77-60.13ZM174.59,141.05c2.44-9.11,3.57-18.52,4.19-27.93.09-1.84-8.42-9.1-9.23-8.23.9,11.5,1.23,23.79,4.33,34.99.12.43.11,1.27.71,1.17Z"/>
  <path class="cls-1" d="M238.31,14.06c2.27.22,10.6,2.38,12.2,3.78l-1.79,2.42c-.74,2.86,2.18,6.25,3.92,8.48,5.15,6.62,11.87,11.94,18.82,16.53l4.91,27.23c-.72.19-.84-.29-1.26-.62-7.21-5.7-12.77-15.07-18.93-21.86-3-1.11-5.85,1.05-5.48,4.21.15,1.3,1.97,3.57,2.8,4.78,6.62,9.57,15.43,17.41,23.47,25.73.42.99.59,2.04.68,3.11.91,10.71.29,28.41-1.33,39.07-.07.47-.27,3.61-1.2,2.78-3.03-5.61-6.23-11.16-8.91-16.95-2.54-5.48-5.15-14.77-7.98-19.36-2.64-4.29-7.51-2.12-7.43,2.35,6.56,15.31,12.06,32.31,23.41,44.78-1.9,10.49-3.25,21.68-9.83,30.41-.61.1-.83-.08-1.24-.45-1.16-1.04-5.18-8.36-6.18-10.22-2.2-4.11-4.05-8.38-5.81-12.69-2.49-3.54-7.42-1.06-7.14,2.47.1,1.24,1.83,5.04,2.44,6.43,3.08,7.12,7.35,14.2,11.81,20.54-3.33,2.93-11.31,7.82-15.74,7.79-3.06-.02-3.22-3.75-5.03-5.07-2.71-1.97-6.4.14-6.09,3.53.06.6,1.25,2.78.19,2.78h-13.67c.69-1.92,1.68-2.96.64-5.05-2.71-5.46-7.5.61-10.35,2.28-.7.41-5.33,2.77-5.64,2.77h-13.25c-.22-1.01.17-.68.55-.94,9.35-6.4,16.19-11.42,22.68-21.04,2-2.96,7.41-12.43,7.5-15.67.1-3.7-4.07-5.42-6.55-3.15-.99.9-4.32,9.46-5.59,11.65-3.98,6.83-10.93,14.26-17.43,18.73-.54.37-3.29,2.37-3.67,2.01l4.7-6.86c6.32-7.58,4.61-20.84,7.74-28.42,1.12-2.71,6.03-8.71,7.92-11.84,5.31-8.76,10.15-18.37,13.6-28.04.92-2.57,3.36-8.91,3.44-11.29.12-3.95-5.01-5.51-7.13-2.49-1.1,1.57-2.45,8.09-3.35,10.53-2.71,7.42-7.04,17.43-11.28,24.04-.34.53-.69,1.21-1.34,1.39l.94-27.44c6.7-10.63,12.2-22.91,15.34-35.12.88-3.41,4.56-14.62-2.15-13.97-4.27.41-4.1,7.22-5,10.6-1.72,6.47-4.05,13.95-6.96,19.96-.43.89-.82,2.19-1.75,2.66-.59-4.95-.81-9.96-1.27-14.92-.19-2.08-1.43-7.14-1.18-8.75.11-.71,2.78-4.99,3.36-6.32,3.77-8.65,6.02-19.21,5.41-28.69-.1-1.58-.52-5.53-1.27-6.72-.58-.92-1.71-1.06-2.11-1.88h33.85Z"/>
  <path class="cls-1" d="M179.22,101.11c-.29.33-4.91-3.05-5.61-3.44-7.7-4.26-16.85-6.24-25.61-4.86-14.41,2.27-23.88,15.71-38.07,18.28-7.42,1.35-13.78-1.57-17.76-7.88h11.99c1.67,0,6.41-1.3,8.18-1.91,3.52-1.2,7.91-2.8,6.5-7.33s-7.79-.38-10.51.38c-8.34,2.33-21.33,1.57-28.74-3.16-4.36-2.78-7.71-7.78-8.86-12.79,2.55.55,4.98,1.41,7.56,1.9,9.51,1.79,19.24.61,28.81,1.47,3.23.29,9.57,3.11,10.96-1.25,1.75-5.47-5.64-5.91-9.28-6.33-11.51-1.3-22,.76-33.52-2.65-20.27-5.99-34.62-26.78-32.66-47.98,1.36-14.69,10.33-5.07,17.06-1.19,13.47,7.77,32.58,14.72,47.24,20.88,21.9,9.22,52.27,17.75,67.49,36.8,1.04,1.3,3.85,4.89,4.21,6.3.22.84.62,4.86.62,5.69v9.04Z"/>
  <path class="cls-1" d="M343.23,71.25c-.02,5.39-4.58,10.65-8.4,14.09-5.13,4.62-12.45,8.75-19.55,8.19-2.9-.23-7.5-3.04-9.15.96-1.34,3.25,1.04,5.2,3.88,6,7.56,2.12,15.59.19,22.29-3.58-3.94,8.68-10.6,10.14-19.55,9.25-5.33-.53-11.08-4.31-16.52-5.35-4.2-.8-7.35-.31-11.45.72-.1-2.73.12-5.49.02-8.22-.36-9.2-2.42-16.9,3.78-24.79,8.1-10.31,18.96-10.2,29.58-15.42,8.16-4.01,18.45-14.22,23.99-21.43,2.52-3.28,9.29-17.13,13.8-9.51,4.27,7.22-3.89,26.08-8.33,32.64-7.38,10.9-19.8,18.42-32.54,21.29-2.92.66-8.55.03-8.83,4.22-.11,1.64,1.64,4.01,3.24,4.32s8.15-1.1,10.05-1.56c3.72-.91,7.29-2.45,10.82-3.9l12.88-7.93Z"/>
  <path class="cls-1" d="M132.96,109.1c.74,16.22,2.84,34.49,9.73,49.35,8.65,18.65,24.08,22.65,34.64,2.8,14.9-28.02,16.21-99.56-2.4-125.88-13.92-19.69-29.8-4.25-34.41,12.75l-7.17-2.8c1.48-10.75,8.88-20.99,18.25-26.28,16.62-9.4,33.89,8.25,37.92,23.62,7.43,28.33,6.71,70.43,2.68,99.41-2.25,16.15-5.08,30.55-20.69,39.02-17.17,9.32-33.75-8.41-37.85-24.12-3.74-14.33-4.82-30.01-6.03-44.74.69-.63,4.79-3.68,5.32-3.12Z"/>
  <path class="cls-1" d="M162.77,101.58c.15,17.42,2.13,34.99,7.87,51.46-.7,1.67-4.21,9.06-5.92,9.04-10.63-18.38-12.52-40.95-13.25-61.83,3.84-.21,7.63.18,11.3,1.32Z"/>
  <path class="cls-1" d="M201.93,14.06c-.2.71-1.11.73-1.69,1.46-1.61,2,.09,8.67,0,11.78-.06,2.29-.57,5.54-.97,7.86-.49,2.83-1.38,5.54-1.97,8.33-.64-.06-.65-.62-.81-1.07-3.61-9.77-5-15.57-13.05-23.11l-6.73-5.25h25.23Z"/>
  <path class="cls-1" d="M174.59,141.05c-.6.1-.59-.74-.71-1.17-3.1-11.2-3.43-23.49-4.33-34.99.8-.87,9.32,6.39,9.23,8.23-.62,9.41-1.75,18.82-4.19,27.93Z"/>
  <path class="cls-1" d="M166.6,61.99l-9.99-6.08c2.02-6.1,4.14-12.33,8.12-17.47,1.42-.34,5.38,7.57,5.91,9.04l-4.04,14.51Z"/>
  <path class="cls-1" d="M144.74,101.95c.31,20.45,3.13,41.47,11.77,60.13-4.75-4.76-7.3-12.38-9.13-18.83-3.05-10.8-4.82-23.96-5.19-35.18-.08-2.49-.85-6.37,2.54-6.12Z"/>
  <path class="cls-1" d="M177.12,70.82c-.6.49-4-3.39-4.53-4.04l1.59-7.31c.64-.06.65,1.03.8,1.5.98,3.23,1.18,6.62,2.14,9.84Z"/>
  <path class="cls-1" d="M150.62,52.75c-.54-.09-1.85-.16-1.62-.98,1.14-4.07,3.98-9.23,6.66-12.48l-5.04,13.46Z"/>
  <path class="cls-1" d="M265.01,30.46c-1.39-1.13-2.8-2.44-4-3.78-.9-1-2.25-2.54-2.72-3.79,2.42,2.21,5.36,4.52,6.72,7.57Z"/>
</svg>