<?xml version="1.0" encoding="UTF-8"?>
<svg id="Capa_2" data-name="Capa 2" xmlns="http://www.w3.org/2000/svg" viewBox="0 0 648 335.11">
  <defs>
    <style>
      .cls-1 {
        fill: #f4e1c3;
      }
    </style>
  </defs>
  <path class="cls-1" d="M114.83,49.53c0,25.36-19.59,44.53-45.57,44.53H28.85v52.99H9.88V4.78h59.38c25.98,0,45.57,19.17,45.57,44.74ZM95.45,49.53c0-15.46-11.34-27.01-26.39-27.01H28.85v53.81h40.21c15.05,0,26.39-11.34,26.39-26.8Z"/>
  <path class="cls-1" d="M242.66,129.93v17.12h-5.57c-14.64,0-23.3-7.22-24.54-20.41-8.66,14.02-23.3,22.89-41.03,22.89-30.1,0-52.58-23.71-52.58-55.05s22.47-55.05,52.58-55.05c17.53,0,32.17,8.66,40.82,22.47v-20h17.73v77.53c0,6.39,4.12,10.51,10.52,10.51h2.06ZM212.35,94.47c0-21.65-16.08-37.94-37.52-37.94s-37.73,16.29-37.73,37.94,16.08,37.94,37.73,37.94,37.52-16.29,37.52-37.94Z"/>
  <path class="cls-1" d="M365.34,129.93v17.12h-5.36c-15.88,0-24.74-8.46-24.74-23.92v-35.46c0-18.77-11.96-31.14-30.72-31.14s-32.17,12.58-32.17,31.55v58.97h-17.73V41.89h17.73v16.91c8.04-12.37,21.45-19.38,37.94-19.38,25.57,0,42.68,16.91,42.68,42.68v37.32c0,6.39,4.13,10.51,10.52,10.51h1.86Z"/>
  <path class="cls-1" d="M517.91,75.92c0,40.62-30.93,71.13-72.17,71.13h-54.84V4.78h54.84c41.24,0,72.17,30.51,72.17,71.13ZM498.53,75.92c0-30.52-22.89-53.4-52.99-53.4h-35.67v106.81h35.67c30.1,0,52.99-22.89,52.99-53.4Z"/>
  <path class="cls-1" d="M640.58,101.89h-92.37c3.09,18.55,17.73,31.34,37.73,31.34,14.64,0,27.42-7.01,33.4-17.53h19.79c-8.25,20.21-28.66,33.81-53.4,33.81-32.37,0-56.5-23.71-56.5-55.05s24.12-55.05,55.88-55.05,55.88,23.71,55.88,55.05c0,2.06-.2,5.36-.41,7.42ZM548.42,86.02h73.61c-3.3-17.94-18.15-30.31-36.91-30.31s-33.2,12.37-36.7,30.31Z"/>
  <path class="cls-1" d="M161.02,185.59v142.27h-18.76v-111.14l-49.9,111.14h-13.82l-49.69-111.14v111.14H9.88v-142.27h24.95l50.93,114.02,50.93-114.02h24.33Z"/>
  <path class="cls-1" d="M169.05,275.28c0-31.34,24.12-55.05,56.08-55.05s55.88,23.71,55.88,55.05-24.12,55.05-55.88,55.05-56.08-23.71-56.08-55.05ZM262.66,275.28c0-21.65-16.08-37.94-37.53-37.94s-37.73,16.29-37.73,37.94,16.08,37.94,37.73,37.94,37.53-16.29,37.53-37.94Z"/>
  <path class="cls-1" d="M392.76,310.74v17.12h-5.57c-23.92,0-37.32-14.64-37.32-38.36,0-12.99,4.74-27.22,12.99-41.64l-47.42-5.57-16.29,85.57h-17.53l17.53-89.48c-5.15-2.27-8.25-7.42-8.25-13.2,0-7.42,5.15-12.58,12.78-12.58s13.2,5.36,13.4,12.99l71.13,8.04v4.33c-12.78,18.77-20,35.47-20,49.69s7.63,23.09,20.41,23.09h4.13Z"/>
  <path class="cls-1" d="M521,310.74v17.12h-5.57c-14.64,0-23.3-7.22-24.54-20.41-8.66,14.02-23.3,22.89-41.03,22.89-30.1,0-52.58-23.71-52.58-55.05s22.47-55.05,52.58-55.05c17.53,0,32.17,8.66,40.82,22.48v-20h17.73v77.53c0,6.39,4.12,10.51,10.51,10.51h2.06ZM490.69,275.28c0-21.65-16.08-37.94-37.52-37.94s-37.73,16.29-37.73,37.94,16.08,37.94,37.73,37.94,37.52-16.29,37.52-37.94Z"/>
  <path class="cls-1" d="M643.88,288.47c0,24.95-16.49,41.86-42.89,41.86-18.56,0-35.05-8.25-44.74-21.03l-8.87,18.56h-18.56l49.9-105.16h20.41c8.87,28.25,44.74,29.49,44.74,65.78ZM625.53,288.27c0-21.65-25.16-25.98-36.91-47.83l-25.57,54.22c6.6,11.14,20.21,18.56,34.85,18.56,16.29,0,27.63-9.69,27.63-24.95Z"/>
</svg>