<?xml version="1.0" encoding="UTF-8"?>
<svg id="Capa_1" data-name="Capa 1" xmlns="http://www.w3.org/2000/svg" viewBox="0 0 400 200">
  <defs>
    <style>
      .cls-1 {
        fill: #bf84d9;
      }
    </style>
  </defs>
  <g>
    <path class="cls-1" d="M54.05,150.3c-5.18-.56-10.34.2-15.55.38,2.17,8.05-.45,19.31-10.1,20.44-24.74,2.9-21.56-29.52-20.25-45.29s4.1-31.11,12.14-44.96c3.24,4.54,7.13,8.05,11.64,11.31.69.5,3.37,1.85,3.49,2.01.23.32-.88,3.09.63,5.25,2.93,4.21,6.99,1.34,9.85-1.11,4.86,10.32,15.19,2.22,7.84-5.89,2.85-2.66,7.89-4.97,5.12-9.74-1.59-2.74-4.92-2.55-7.46-1.45-2.85-9.08-.14-12.21,9.17-10.5,8.74,1.6,12.51,5.39,15.21,13.63,6.57,20.1,9.87,49.77,6.68,70.61-1.01,6.56-1.63,10.49-8.96,11.91-4.61.89-12.08.76-15.43-2.97-1.4-1.56-4.01-6.09-4.01-8.13v-5.5Z"/>
    <g>
      <path class="cls-1" d="M54.8,33.07c14.39.53,25.56,11.7,26.55,26,.05.7.16,9.66-1.89,8.15-1.35-4.34-5.35-7.02-9.39-8.64-1.07-.43-5.36-1.43-5.7-1.7-.21-.17-1.43-2.85-2.18-3.7-6.32-7.2-20.42-6.1-25.98,1.34-1.41,1.89-1.36,3.99-2.11,5.1-.34.5-1.34.66-1.89,1.15-2.84,2.54-5,5.27-6.24,8.94l-1.15,7c-.36-1.56-1.41-2.84-1.92-4.35-.55-1.62-.63-3.88-1.22-5.23-.83-1.88-2-.87-1.79-4.27.91-14.83,13.48-30.15,27.4-34.82,5.32-1.79,10.15-2.66,7.5,5.03Z"/>
      <path class="cls-1" d="M60.58,61.06c.27.27,5.99,1.45,7.32,1.97,3.16,1.24,6.46,3.37,7.39,6.84-2.03.31-3.46-1.43-5.17-2.22-12.89-5.93-29.59-5.39-24.9,13.52.66,2.65,3.56,6.37,1.42,8.8-1.14,1.29-3.8.77-5.28.37-11.94-3.24-16.01-21.17-3.77-26.87.44-.21,1.56-.4,1.61-.47.36-.41-.69-3.84,1.54-6.24,4.36-4.68,14.91-5.07,18.55.84.6.97.94,3.1,1.29,3.46Z"/>
    </g>
  </g>
  <g>
    <g>
      <path class="cls-1" d="M154.86,63.5c11.03-2.24,22.14,4.31,22.34,16.1.26,15.1-9.83,26.88-17.18,39.01,3.03,5.93,6.82,11.48,9.68,17.51,4.42,9.31,8.6,20.61,2.64,30.23-2.53,4.09-8.45,6.99-13.22,5.77-7.14-1.83-16.77-20.66-19.79-27.26-.56-1.22-1.11-3.97-1.65-4.8-.63-.96-3.54-1.82-3.88-.16,1.28,6.89,3.43,22.79-2.77,27.63-6.06,4.72-18.53,4.4-23.69-1.68-9.12-10.73-7.8-45.93-6.63-59.76.67-7.95,3.02-29.4,7.59-35.28,6.52-8.37,21.45-9.56,26.75.55,1.35,8.49-.53,17.08-.57,25.61.15,1.3,1.7,1.65,2.78,1.29s.54-3.16.67-4.26c.9-7.46,8.71-28.84,16.92-30.5Z"/>
      <g>
        <path class="cls-1" d="M247.72,101.74c-5.65-.67-11.3-3.78-13.79-8.97-11.77-24.43,26.75-27.63,41.86-26.31,7.91.69,24.37,4.75,29.11,11.48,3.45,4.9,3.88,12.84,1.32,18.19-1.46,3.04-2.39,3.16-5.42,4.06-5.5,1.63-11.39,1.9-16.8,3.88.35,4.08.64,8.2,1.09,12.28,1.54,14.07,4.58,27.54,1.09,41.69-3.07,12.46-9.88,17.78-22.81,12.67-14.02-5.54-11.18-22.99-10.89-34.99.28-11.35.22-22.76,2.26-33.97-2.24-.19-4.84.26-7.02,0Z"/>
        <path class="cls-1" d="M209.13,69.21c5.94-.67,11.66-.71,13.64,5.88,2.57,8.59,2.09,28.92,2.02,38.61-.08,11.89-1.28,40.96-7.02,50.64-6.27,10.57-24.23,9.3-27.33-3.42-3.66-15.02-3.65-36.72-2.85-52.17s1.94-37.32,21.54-39.54Z"/>
      </g>
    </g>
    <path class="cls-1" d="M385.14,86.1c-5.21-17.02-16.8-24.13-34.6-22.68-25.59,2.1-34.04,40.27-35.86,60.89-1.52,17.22-5.03,51.26,21.43,48.74,10.19-.97,13.13-11.77,11.96-20.48l12.14-.38c-.55,5.13,2.47,13,7.19,15.38,5.73,2.89,17.89,2.54,21.73-3.33,1.9-2.9,2.57-9.77,2.94-13.38,2.1-20.45-.92-45.12-6.93-64.76ZM357.19,125.01c-2.15.83-7.41,2.76-7.96-.72.25-10.67,1.93-21.22,3.48-31.75.27-1.02,2.04-1.9,2.89-1.37.19.12.39,1.29.43,1.65,1.05,10.69,1.56,21.49,1.15,32.19Z"/>
  </g>
</svg>