<?xml version="1.0" encoding="UTF-8"?>
<svg id="Capa_2" data-name="Capa 2" xmlns="http://www.w3.org/2000/svg" viewBox="0 0 737.35 335.11">
  <defs>
    <style>
      .cls-1 {
        opacity: .67;
      }

      .cls-2 {
        fill: #f4e1c3;
      }
    </style>
  </defs>
  <g>
    <path class="cls-2" d="M503.92,136.81c0,11.19-8.64,19.65-20.1,19.65h-17.83v23.38h-8.37v-62.76h26.19c11.46,0,20.1,8.46,20.1,19.74ZM495.37,136.81c0-6.82-5-11.92-11.64-11.92h-17.74v23.74h17.74c6.64,0,11.64-5,11.64-11.82Z"/>
    <path class="cls-2" d="M560.31,172.28v7.55h-2.46c-6.46,0-10.28-3.18-10.82-9-3.82,6.18-10.28,10.1-18.1,10.1-13.28,0-23.19-10.46-23.19-24.28s9.91-24.28,23.19-24.28c7.73,0,14.19,3.82,18.01,9.91v-8.82h7.82v34.2c0,2.82,1.82,4.64,4.64,4.64h.91ZM546.94,156.64c0-9.55-7.09-16.74-16.55-16.74s-16.64,7.19-16.64,16.74,7.09,16.74,16.64,16.74,16.55-7.18,16.55-16.74Z"/>
    <path class="cls-2" d="M614.42,172.28v7.55h-2.37c-7,0-10.91-3.73-10.91-10.55v-15.64c0-8.28-5.28-13.74-13.55-13.74s-14.19,5.55-14.19,13.92v26.01h-7.82v-46.39h7.82v7.46c3.55-5.46,9.46-8.55,16.74-8.55,11.28,0,18.83,7.46,18.83,18.83v16.46c0,2.82,1.82,4.64,4.64,4.64h.82Z"/>
    <path class="cls-2" d="M681.72,148.45c0,17.92-13.64,31.38-31.83,31.38h-24.19v-62.76h24.19c18.19,0,31.83,13.46,31.83,31.38ZM673.17,148.45c0-13.46-10.1-23.56-23.37-23.56h-15.74v47.11h15.74c13.28,0,23.37-10.1,23.37-23.56Z"/>
    <path class="cls-2" d="M735.84,159.91h-40.75c1.37,8.18,7.82,13.83,16.64,13.83,6.46,0,12.1-3.09,14.73-7.73h8.73c-3.64,8.91-12.64,14.92-23.56,14.92-14.28,0-24.92-10.46-24.92-24.28s10.64-24.28,24.65-24.28,24.65,10.46,24.65,24.28c0,.91-.09,2.36-.18,3.27ZM695.18,152.91h32.47c-1.46-7.91-8-13.37-16.28-13.37s-14.64,5.46-16.19,13.37Z"/>
    <path class="cls-2" d="M524.29,196.83v62.76h-8.28v-49.02l-22.01,49.02h-6.09l-21.92-49.02v49.02h-8.37v-62.76h11.01l22.47,50.3,22.47-50.3h10.73Z"/>
    <path class="cls-2" d="M527.84,236.39c0-13.83,10.64-24.28,24.74-24.28s24.65,10.46,24.65,24.28-10.64,24.28-24.65,24.28-24.74-10.46-24.74-24.28ZM569.13,236.39c0-9.55-7.09-16.74-16.55-16.74s-16.64,7.19-16.64,16.74,7.09,16.74,16.64,16.74,16.55-7.18,16.55-16.74Z"/>
    <path class="cls-2" d="M626.52,252.03v7.55h-2.46c-10.55,0-16.46-6.46-16.46-16.92,0-5.73,2.09-12.01,5.73-18.37l-20.92-2.46-7.19,37.75h-7.73l7.73-39.47c-2.27-1-3.64-3.27-3.64-5.82,0-3.27,2.27-5.55,5.64-5.55s5.82,2.36,5.91,5.73l31.38,3.55v1.91c-5.64,8.28-8.82,15.65-8.82,21.92s3.37,10.19,9,10.19h1.82Z"/>
    <path class="cls-2" d="M683.09,252.03v7.55h-2.46c-6.46,0-10.28-3.18-10.82-9-3.82,6.18-10.28,10.1-18.1,10.1-13.28,0-23.19-10.46-23.19-24.28s9.91-24.28,23.19-24.28c7.73,0,14.19,3.82,18.01,9.91v-8.82h7.82v34.2c0,2.82,1.82,4.64,4.64,4.64h.91ZM669.72,236.39c0-9.55-7.09-16.74-16.55-16.74s-16.64,7.19-16.64,16.74,7.09,16.74,16.64,16.74,16.55-7.18,16.55-16.74Z"/>
    <path class="cls-2" d="M737.29,242.21c0,11.01-7.28,18.46-18.92,18.46-8.19,0-15.46-3.64-19.74-9.28l-3.91,8.19h-8.19l22.01-46.39h9c3.91,12.46,19.74,13.01,19.74,29.01ZM729.2,242.12c0-9.55-11.1-11.46-16.28-21.1l-11.28,23.92c2.91,4.91,8.91,8.19,15.37,8.19,7.19,0,12.19-4.27,12.19-11.01Z"/>
  </g>
  <g>
    <path class="cls-2" d="M298.31,298.69c.03-.06.09-.08.15-.05,1.39.77,19.32,12.32,38.73,14.26,26.64,2.67,49.04-9.77,62.09-33.68,9.94-18.2,7.26-35.8.19-50.01-5.26-10.58-13.42-15.88-13.51-15.93-.63-.4-1.05-1.07-1.17-1.83-.12-.76.09-1.54.56-2.13,15-18.65,11.47-45.07-.41-58.85-.67-.78-1.33-1.48-1.98-2.13-.04-.04-.11-.04-.15,0-2.87,3.43-6.3,5.4-10.07,5.75-2.75.26-5.98.22-9.09-2.02-2.33-1.68-3.41-5.04-2.67-8.36.82-3.69,3.55-6.3,7.13-6.82,2.85-.41,7.77-.24,13.55,3.67.06.04.14.02.17-.04,1.41-2.9,2.31-6.26,2.66-9.84,2.92-30.74-15.87-47.1-29.18-50.75-9.51-2.61-18.28-6.57-26.08-11.79-10.8-7.22-20.71-16.04-29.45-26.2-12.91-15.01-29.2-20.85-48.41-17.36-11.62,2.11-20.89,7.18-24.22,9.18l-2.14,1.56-1.23,1.06c-3.2,2.77-7.96,2.75-11.13-.06l-2.17-1.93c-.08-.07-10.09-8.64-24.56-11.92-19.17-4.34-36.81,2.22-52.43,19.52-3.28,3.63-7.06,7.44-11.06,11.47-2.36,2.38-4.8,4.84-7.18,7.31-.04.05-.09.09-.14.13-1.04.94-19.46,17.17-37.08,17.17-6.39,0-12.67-2.13-17.99-7.9-2.3-2.43-4.96-7.5-4.05-13.66.02-.1-.11-.17-.18-.1-2.22,2.29-4.29,5.14-5.3,8.44-1.16,3.78-.77,7.56,1.18,11.53.14.26,4.08,7.52,13.18,6.86,1.36-.11,2.54.97,2.66,2.4.12,1.43-.87,2.7-2.22,2.85-.09,0-9.16,1.11-18.61,7.38-12.54,8.33-22.97,27.08-24.84,44.6-.62,5.74,1.35,19.01,7.31,26.36.04.05.11.05.15.02,5.12-3.57,9.56-4.94,13.67-4.29,3.59.57,6.32,3.22,7.11,6.91.72,3.33-.33,6.57-2.68,8.26-3.1,2.23-6.34,2.27-9.09,2.02-4.36-.41-7.29-3.19-9.63-5.77-.04-.04-.1-.05-.15,0-.85.72-1.72,1.5-2.61,2.34-13.02,12.27-23.24,40.91-17.79,67.61,2.93,14.37,11.67,33.23,36.64,41.46.45.15.86.43,1.16.81.11.14,11.22,13.82,29.27,21.86,23.44,10.45,47.24,7.04,70.76-10.12.04-.03.09-.03.13,0l4.3,2.98c.06.04.06.13,0,.18-17.85,13.48-34.41,18.03-48.64,18.03-11.17,0-20.89-2.8-28.67-6.29-17.09-7.67-28.01-19.76-30.45-22.63-.01-.01-.02-.02-.04-.03-26.73-9.1-36.15-29.54-39.33-45.15-5.83-28.58,5.26-59.39,19.35-72.67.85-.8,1.68-1.55,2.5-2.26.04-.04.05-.1.01-.14-7.12-9.03-8.93-23.76-8.25-30.1,2.57-24.02,17.7-42.26,27.34-48.6,3.49-2.3,6.91-3.95,9.92-5.14.08-.03.08-.14.01-.18-4.6-2.78-6.73-6.83-6.87-7.1-2.59-5.27-3.1-10.52-1.51-15.66,3.43-11.11,15.5-17.54,16.01-17.8,1.26-.66,2.83-.1,3.41,1.36.38.95.14,2.06-.52,2.85-7.67,9.22-1.79,16.11-1.09,16.87,16.42,17.81,46.62-8.13,48.24-9.55h0c2.38-2.47,4.81-4.92,7.16-7.29,3.96-3.99,7.69-7.75,10.89-11.29,21.12-23.38,42.8-24.32,57.28-20.99,15.59,3.59,26.06,12.59,26.5,12.98l.61.54c2.26,2.01,5.67,2.03,7.95.04h0c.07-.06,2.26-1.62,2.35-1.68.47-.32,10.27-6.96,25.78-9.82,14.48-2.67,35.45-1.54,53.1,18.97,8.44,9.81,18.01,18.32,28.43,25.29,7.36,4.92,15.66,8.67,24.67,11.14,11.96,3.28,36.3,20.43,32.89,56.38-.44,4.61-1.69,8.93-3.64,12.63-.02.04-.01.09.02.12.92.88,1.85,1.86,2.79,2.95,6.66,7.73,10.89,18.75,11.61,30.22.54,8.68-.71,21.27-9.32,33.28-.03.04-.03.1.01.13,3.17,2.57,8.83,7.94,12.95,16.22,5.44,10.94,13.23,30.34-.29,55.1-13.94,25.54-38.61,39.17-67.02,36.28-20.64-2.1-39-14.02-40.49-14.86-.05-.03-.07-.09-.04-.14l2.27-4.45ZM32.86,170.76c-.06.04-.07.12-.02.17,1.74,1.85,3.54,3.36,5.94,3.59,1.92.18,3.95.24,5.85-1.12.61-.44.87-1.59.63-2.73-.16-.75-.77-2.52-2.99-2.87-2.6-.41-5.74.58-9.4,2.96ZM370.31,142.02c-.57,0-1.08.04-1.53.11-2.18.31-2.79,2.06-2.96,2.8-.26,1.17,0,2.34.62,2.79,1.89,1.36,3.93,1.3,5.85,1.12,2.41-.22,4.61-1.48,6.58-3.74.04-.05.03-.13-.02-.17-3.46-2.31-6.42-2.91-8.54-2.91Z"/>
    <g class="cls-1">
      <circle class="cls-2" cx="155.51" cy="260.46" r="39.59"/>
    </g>
    <g class="cls-1">
      <path class="cls-2" d="M259.46,235.75c0,8.74-7.09,15.83-15.83,15.83s-15.83-7.09-15.83-15.83,7.09-19.85,15.83-19.85,15.83,11.11,15.83,19.85Z"/>
    </g>
    <g class="cls-1">
      <path class="cls-2" d="M345.66,229.31c-6.73-5.28-15.21-8.43-24.42-8.43-21.86,0-39.59,17.72-39.59,39.59,0,16.53,10.13,30.69,24.53,36.62l9.79-7.11,12.62-13.35,8.28-12.62,6.35-15.73,2.44-14.45v-4.52Z"/>
    </g>
    <path class="cls-2" d="M241.14,283.3c-15.02,0-25.42-4.46-26.17-4.91-1.48-.9-1.96-2.84-1.05-4.32.9-1.48,2.84-1.95,4.32-1.05.31.19,24.83,14.67,45.57.11,1.42-1,3.38-.65,4.38.77,1,1.42.83,3.71-.77,4.38-10.43,4.39-18.49,5.03-26.29,5.03Z"/>
    <path class="cls-2" d="M83.25,195.14c-3.23.26-7.76,2.6-9.24,3.48-.91.54-21.82,13.35-10.78,42.99,4.62,12.39,13.73,19.63,27.08,21.54,10.18,1.45,19.02-.85,19.11-.87.66-.18,1.36-.07,1.94.29.58.36.98.95,1.11,1.62.02.11,2.62,12,18.32,23.77,14.67,11,44.03,24.11,100.57,24.11,44.66,0,78.12-13.49,96.75-39.01,14.07-19.28,14.9-38.88,14.91-39.08,0-.06,0-.12.01-.17,0-.03.34-3.35,0-6.76l4.91-.48c.36,3.64.07,7.06,0,7.66-.07,1.68-1.17,21.49-15.69,41.52-8.71,12.02-20.47,21.59-34.94,28.44-17.95,8.5-40.14,12.81-65.96,12.81-46.82,0-81.81-8.56-103.99-25.44-12.84-9.77-17.5-19.6-19.05-24.02-8.69,1.56-38.94,4.73-49.73-24.21-12.53-33.62,12.64-48.81,12.9-48.96.18-.11,4.02-2.39,8.12-3.54l3.64,4.31Z"/>
    <path class="cls-2" d="M163.25,113.98c-8.71,9.6-21.89,12.44-33.79,7.22-3.79-1.61-7.19-3.95-10.26-6.58l1.35-.76c2.85,9.68,11.38,15.47,21.1,16.82,0,0-.4,2.63-.4,2.63-8.41-1.02-15.54,2.7-15.72,11.95-.1,1.86.07,3.75.79,5.47,2.28,5.38,8.12,7.93,13.72,9.01,3.74.66,7.94.75,11.52-.38,1.14-.4,2.89-1.15,3.09-2.25.35-2.22-2.29-2.31-3.73-1.37.16-.09.12-.08.09-.03-1.03,1.67-1.29,3.94-1.39,6.14-.18,7.79,3.22,15.49,8.68,21.05,7.05,7.24,16.83,11.2,26.61,13.4,15.99,3.71,38.88,6.11,52.89-3.8,1.07-.86,2.57-.83,3.61-.02.55.42,1.39.99,2.04,1.38,2.24,1.38,4.61,2.55,7.06,3.53,9.89,3.97,20.91,4.69,31.29,2.16,6.64-1.78,13.72-4.01,18.73-8.9,4.89-4.8,7.85-11.7,8.75-18.48.13-1.14,1.12-1.98,2.24-1.98.48,0,1.15-.03,1.74-.09,4.03-.39,8.4-1.82,11.11-4.84,4.8-5.48,3.07-14.33.14-20.38-3.87-8.05-14.19-10.16-21.46-5.46-3.8,2.51-1.45,8.95,2.98,8.91,3.55-.12,5.66-3.67,6.47-6.97,1.73-7.57-1.71-15.33-6.11-21.42-1.53-2.09-3.26-4.2-4.73-6.44,2.09,1.73,4.08,3.46,5.96,5.44,3.74,4.03,6.28,9.14,7.35,14.56,1.45,6.62-.64,16.91-8.87,17.61-6.11.27-10.21-7.47-6.66-12.42,3.23-4.15,9.26-5.31,14.24-5.02,5.91.38,11.41,4.18,14.13,9.42,6.75,13.23,4.53,27.97-11.93,31.07-1.52.27-2.8.45-4.39.47,0,0,2.25-2.07,2.25-2.07-.93,10-5.8,19.88-14.29,25.57-15.12,9.11-34.57,11.28-51.05,4.6-3.74-1.52-7.3-3.32-10.55-5.76,0,0,3.73-.12,3.73-.12-13.81,10.37-35.54,9.4-51.61,6.21-8.57-1.72-17.09-4-24.76-8.39-11.85-6.46-21.11-19.06-20.4-33.02.22-3.14.61-6.32,2.63-8.98,2.65-2.86,8.35-3.05,10.72.52,2.01,2.83,1.02,6.87-1.75,8.65-5.14,3.26-11.43,2.91-17.11,1.92-7.67-1.4-16.37-6.61-17.16-15.24-.79-8.82,3.48-16.8,12.85-17.95,2.31-.3,4.47-.29,6.79.1.74.11,1.25.81,1.12,1.55-.13.72-.81,1.2-1.52,1.08-2.6-.22-5.2-.78-7.7-1.71-7.56-2.69-13.75-9.49-14.74-17.59-.05-.44.27-.85.71-.9.25-.03.48.06.65.22,7.48,6.06,17.36,9.64,26.93,7.44,5.72-1.27,11.24-3.27,16.07-6.8h0Z"/>
    <path class="cls-2" d="M313.24,172.32c.85.81,1.22,1.66,1.35,2.7.34,2.69.82,5.38,1.43,8.02,3.06,12.64,8.37,25.36,18.06,34.09,8.85,7.7,20.12,10.25,31.92,11.07-7.2,1.88-15.01,2.16-22.6.23-20.3-5.32-30.34-25.22-31.23-44.83-.2-2.82-.25-5.64-.16-8.46.04-.94.26-1.9,1.24-2.82h0Z"/>
    <path class="cls-2" d="M150.01,172.32c-.85.81-1.22,1.66-1.35,2.7-.34,2.69-.82,5.38-1.43,8.02-3.06,12.64-8.37,25.36-18.06,34.09-8.85,7.7-20.12,10.25-31.92,11.07,7.2,1.88,15.01,2.16,22.6.23,20.3-5.32,30.34-25.22,31.23-44.83.2-2.82.25-5.64.16-8.46-.04-.94-.26-1.9-1.24-2.82h0Z"/>
    <path class="cls-2" d="M68.27,184.03c14.3,2.89,25.4,14.75,29.74,27.74,1.45,4.38,2.26,8.92,2.21,13.46-2.54-6.88-5.22-13.38-9.13-19.54-5.67-8.86-13.38-16.29-22.81-21.65h0Z"/>
    <path class="cls-2" d="M245.83,251.97c4.5-2.87,11.16-5.86,10.62-11.62-.64-5.69-4.77-11.05-7.69-16.37,1.67.57,3.18,1.44,4.62,2.41,6.06,4.06,11.61,12.64,7.37,19.84-3.26,4.94-9.43,6.58-14.92,5.74h0Z"/>
    <path class="cls-2" d="M191.93,232.37c-7.14,0-12.56-2.04-16.12-6.06-3.67-4.15-4.28-9.28-4.31-11.99h-24.93c-1.36,0-2.47-1.11-2.47-2.47s1.11-2.47,2.47-2.47h63.4c1.26,0,2.32.95,2.45,2.2.04.35.87,8.67-4.59,14.75-3.59,4-8.95,6.03-15.91,6.03Z"/>
    <path class="cls-2" d="M289.05,232.37c-6.96,0-12.32-2.03-15.91-6.03-5.46-6.08-4.63-14.4-4.59-14.75.14-1.25,1.19-2.2,2.45-2.2h63.4c1.36,0,2.47,1.11,2.47,2.47s-1.11,2.47-2.47,2.47h-24.93c-.03,2.72-.63,7.84-4.3,11.99-3.56,4.02-8.98,6.06-16.12,6.06Z"/>
  </g>
</svg>