<?xml version="1.0" encoding="UTF-8"?>
<svg id="Capa_2" data-name="Capa 2" xmlns="http://www.w3.org/2000/svg" xmlns:xlink="http://www.w3.org/1999/xlink" viewBox="0 0 1920 1080">
  <defs>
    <style>
      .cls-1 {
        fill: url(#Grafismos);
        opacity: .15;
      }

      .cls-2 {
        fill: #e8679d;
      }

      .cls-3 {
        fill: none;
      }

      .cls-4 {
        fill: #fffbf1;
      }
    </style>
    <pattern id="Grafismos" x="0" y="0" width="893.78" height="560.3" patternTransform="translate(-2592.67 -7014.26)" patternUnits="userSpaceOnUse" viewBox="0 0 893.78 560.3">
      <g>
        <rect class="cls-3" width="893.78" height="560.3"/>
        <g>
          <g>
            <path class="cls-2" d="M672.5,535.26c.31-1.68,1.93-2.79,3.61-2.48l50.01,9.26s.04-.03.07-.04c31.19-15.38,72.39-21.75,74.13-22.02,1.17-.18,2.34.33,3.02,1.31l9.32,13.55c.67.98.73,2.25.14,3.28-.19.34-4.35,7.66-11.19,17.9l41.75,7.73c1.68.31,2.79,1.93,2.48,3.61-8.84,47.79-54.92,79.47-102.7,70.62-47.79-8.84-79.47-54.92-70.62-102.7ZM794.96,554.78c1.37-2.01,2.64-3.93,3.81-5.73-1.57,1.69-3.3,3.53-5.18,5.48l1.36.25ZM770.48,550.25l27.44-18.87c-8.28,2.94-23.96,8.8-40.39,16.47l12.95,2.4ZM779.09,551.84l7.2,1.33c7.39-7.58,12.82-13.62,16.04-17.32l-23.24,15.98ZM736.69,544l10.52,1.95c14.5-7.21,29.19-13.16,39.72-17.13-12.96,2.76-32.65,7.7-50.24,15.18ZM678.08,539.45c-6.36,43.32,22.76,84.4,66.17,92.43,43.41,8.03,85.3-19.9,94.87-62.63l-161.04-29.81Z"/>
            <path class="cls-2" d="M809.71,526.97c-4.3-6.25-2.71-14.84,3.54-19.14l32.19-22.13c3.03-2.08,6.69-2.86,10.3-2.19.27.05.53.12.79.19.7-1.1,1.62-2.06,2.73-2.82l2.32-1.6c4.49-3.09,10.66-1.95,13.75,2.54,3.09,4.49,1.95,10.66-2.55,13.75l-2.32,1.6c-1.1.75-2.32,1.26-3.59,1.53-.46,3.78-2.46,7.36-5.84,9.68l-32.19,22.13c-3.03,2.08-6.69,2.86-10.3,2.19s-6.75-2.71-8.84-5.74ZM862.13,486.55c.92.78,1.74,1.67,2.44,2.69.7,1.02,1.23,2.1,1.62,3.22.27-.1.52-.23.76-.39l2.32-1.6c.81-.56,1.36-1.4,1.54-2.37s-.03-1.95-.59-2.77c-1.16-1.68-3.46-2.11-5.14-.95l-2.32,1.6c-.24.17-.45.36-.64.57ZM814.81,523.47c1.15,1.67,2.87,2.79,4.86,3.15s4-.06,5.67-1.21l32.19-22.13c3.44-2.36,4.31-7.09,1.95-10.53-1.15-1.67-2.87-2.79-4.86-3.15s-4,.06-5.67,1.21l-32.19,22.13c-3.44,2.36-4.31,7.09-1.95,10.53Z"/>
          </g>
          <g>
            <path class="cls-2" d="M838.11,363.13c20.34,8.84,39.97,19.63,58.34,32.05l6.96,4.71c7.58,4.25,10.85,12.9,7.31,19.36s-12.58,8.33-20.22,4.24c-25.8-10.5-50.38-24.01-73.08-40.15-7.55-4.26-10.81-12.89-7.27-19.33s12.61-8.33,20.26-4.22l7.7,3.35ZM835.35,369.46l-7.84-3.41c-.1-.04-.19-.09-.29-.14-4.27-2.34-9.32-1.7-11.02,1.41-1.71,3.11.46,7.71,4.72,10.06.12.06.23.14.34.21,22.36,15.91,46.59,29.22,72.01,39.56.12.05.24.11.36.17,4.27,2.34,9.32,1.7,11.02-1.41,1.71-3.11-.46-7.71-4.72-10.06-.09-.05-.18-.11-.27-.17l-7.08-4.79c-18.02-12.19-37.28-22.76-57.23-31.44Z"/>
            <path class="cls-2" d="M784.63,368.58c-2.55-.17-4.99-.88-7.24-2.12-2.17-1.19-4.03-2.81-5.52-4.8-.11-.12-.22-.26-.31-.4l-.19-.29c-.14-.2-.32-.48-.49-.77-.03-.04-.05-.08-.07-.13l-1.36-2.51c-2.63-1.05-4.9-2.89-6.45-5.34l-4.68-7.42c-4.07-6.46-5.38-14.29-3.62-21.72.51-2.14,3.22-2.8,4.65-1.13l3.67,4.28c1.79,2.08,4.31,3.41,7.04,3.71l3.82.42c2.4.26,4.51,1.64,5.75,3.68l4.26-.15c.84-.09,1.7-.12,2.57-.09h.07c.21,0,.42,0,.63.04,2.49.19,4.85.89,7.02,2.09s4.08,2.84,5.57,4.84c.09.12.16.25.22.37l12.49,10.66c.65.55,1.04,1.35,1.08,2.21.04.85-.27,1.69-.87,2.3l-.35.36c-3.54,3.66-6.1,8.2-7.38,13.13l-.14.55c-.43,1.64-2.1,2.63-3.75,2.22l-15.99-3.99c-.15.01-.29.03-.44.02ZM797.6,347.24l-.84.86c-3.54,3.66-6.1,8.2-7.38,13.13l-.49,1.9,10.78,2.69c.58-1.72,1.3-3.39,2.13-5l-5.15-3.53c-1.33-.91-1.72-2.66-.97-4.04.05-.09.1-.18.16-.26.97-1.41,2.89-1.77,4.3-.8l4.95,3.39c.3-.39.6-.78.91-1.16l-8.42-7.19ZM792.32,343.8l.96-.99c-.63-.56-1.32-1.06-2.08-1.48-1.46-.8-3.06-1.26-4.75-1.36-.03,0-.05,0-.08,0-.02,0-.04,0-.06,0-.62-.03-1.23,0-1.82.06-.09.01-.17.02-.26.02l-8.14.28-2.52,1.96c-.31.24-.68.42-1.07.5l-.61.14c-1.13.25-1.94,1.19-2.08,2.3l1.69,3.12,4.45,4.33c.7.68.97,1.68.72,2.62l-.33,1.23c-.04.16-.1.31-.17.46l.03.06c.1.16.21.33.31.48l.05.08s.07.09.1.13c.99,1.38,2.23,2.48,3.69,3.28.77.42,1.58.75,2.41.98l.61-2.33c.75-2.87,1.85-5.63,3.27-8.21,1.53-2.79,3.43-5.37,5.66-7.67Z"/>
            <path class="cls-2" d="M747.28,331.13c.84,1.27,2.79.95,3.09-.55.65-3.27.99-7.31-.05-11.01-2.23-7.94-16.15-9.76-17.17,1.09,0,0-.55,5.53,8.15,7.01,3.15.54,4.96,1.92,5.98,3.46Z"/>
          </g>
          <path class="cls-2" d="M1006.18,535.3l-102.19,139.18c-4.46,6.07-13.02,7.38-19.08,2.92l-.4-.29-.72.98c-1.59,2.16-3.95,3.41-6.43,3.67l-.51,5.06c-.07.67-.35,1.3-.81,1.79l-36.34,39.35c-1.07,1.16-2.84,1.33-4.11.39l-8.6-6.31c-1.3-.96-1.65-2.75-.8-4.12l27.77-44.95c.36-.59.91-1.04,1.56-1.28l4.98-1.84c-.7-2.59-.26-5.47,1.45-7.79l.72-.98-.4-.29c-6.07-4.46-7.38-13.02-2.92-19.08l102.19-139.18c4.46-6.07,13.02-7.38,19.08-2.92l.4.29.72-.98c1.71-2.33,4.32-3.61,7-3.72l.26-5.3c.03-.69.3-1.35.75-1.87l34.57-39.95c1.06-1.22,2.87-1.42,4.17-.47l8.6,6.31c1.27.93,1.64,2.67.85,4.04l-26.66,46.45c-.33.58-.85,1.04-1.47,1.3l-4.68,2c.5,2.44.01,5.07-1.58,7.24l-.72.98.4.29c6.07,4.46,7.38,13.02,2.92,19.08ZM995.14,491.26l-.29,5.92,6.77,4.97c.09.07.18.15.27.22l4.56-1.95,24.77-43.15-4.06-2.98-32.01,36.98ZM986.01,503.56l11.85,8.7.72-.98c.8-1.09.73-2.56-.07-3.57l-8.35-6.13c-1.21-.46-2.63-.09-3.43,1l-.72.98ZM871.27,680.24c-.1-.07-.2-.12-.29-.19l-6.77-4.97-5.56,2.05-25.7,41.61,4.06,2.98,33.76-36.56.5-4.93ZM879.51,673.44l-11.85-8.7-.72.98c-.8,1.09-.73,2.56.07,3.57l8.35,6.13c1.21.46,2.63.09,3.43-1l.72-.98ZM1001.18,531.63c2.43-3.32,1.72-7.99-1.6-10.43l-2.9-2.13-16.84-12.36-2.9-2.13c-3.32-2.43-7.99-1.72-10.43,1.6l-102.19,139.18c-2.43,3.32-1.72,7.99,1.6,10.43l2.9,2.13,16.84,12.36,2.9,2.13c3.32,2.43,7.99,1.72,10.43-1.6l102.19-139.18Z"/>
          <path class="cls-2" d="M777.84,448.81s0,.01,0,.02l9.73,22.91c.87,2.04.46,4.31-1.05,5.93s-3.75,2.17-5.85,1.44l-23.51-8.18s-.01,0-.02,0c-.12-.04-.22-.1-.34-.16-.06-.03-.12-.05-.18-.09-.06-.04-.12-.09-.17-.13-.1-.07-.19-.13-.28-.21,0,0-.01,0-.02-.01l-79.98-74.79c-4.38-4.1-4.61-10.99-.52-15.38l6.15-6.57c4.1-4.38,10.99-4.61,15.38-.52l79.98,74.79s0,.01.01.02c.08.08.15.17.23.26.05.06.1.11.14.17.04.05.06.11.1.17.06.11.13.21.18.33ZM775.92,458.72c-.07.08-.12.16-.19.24-.2.21-.4.41-.62.6-1.77,1.59-3.82,2.27-5.5,2.53-.35,2.52-1.27,4.61-2.76,6.24l10.43,3.63,2.93-3.13-4.29-10.1ZM767.94,456.05c.83-.04,2.12-.26,3.06-1.12.86-.78,1.34-2.03,1.47-3.73l-47.29-44.22-4.53,4.85,47.29,44.22ZM707.98,390.89l-13.3,14.22,12.68,11.86,13.3-14.22-12.68-11.86ZM711.89,421.2l47.44,44.36c.85-.12,1.93-.42,2.75-1.2.87-.82,1.37-2.15,1.48-3.93l-47.13-44.08-4.53,4.85ZM680.05,391.42l10.11,9.46,13.3-14.22-10.11-9.46c-2.11-1.97-5.43-1.86-7.4.25l-6.15,6.57c-1.97,2.11-1.86,5.43.25,7.4Z"/>
        </g>
        <g>
          <path class="cls-2" d="M210.71,533.24c-.45,1.5-1.24,2.86-2.29,3.98,1.88,3.07,2.51,6.89,1.41,10.61l-18.2,61.36c-2.06,6.96-9.41,10.95-16.37,8.88-6.96-2.06-10.95-9.41-8.88-16.37l18.2-61.36c1.1-3.7,3.7-6.55,6.93-8.11-.29-1.53-.21-3.09.24-4.62l.8-2.7c1.55-5.23,7.07-8.22,12.29-6.67,5.23,1.55,8.22,7.07,6.67,12.29l-.8,2.7ZM203.89,546.07c1.09-3.69-1.02-7.58-4.71-8.67s-7.58,1.02-8.67,4.71l-18.2,61.36c-1.09,3.69,1.02,7.58,4.71,8.67s7.58-1.02,8.67-4.71l18.2-61.36ZM204.02,532.84c.34-.39.6-.85.75-1.35l.8-2.7c.58-1.95-.54-4.02-2.49-4.6s-4.02.54-4.6,2.49l-.8,2.7c-.15.51-.18,1.04-.11,1.56,1.12.03,2.25.19,3.37.52s2.13.8,3.07,1.38Z"/>
          <path class="cls-2" d="M-55.67,363.13c20.34,8.84,39.97,19.63,58.34,32.05l6.96,4.71c7.58,4.25,10.85,12.9,7.31,19.36-3.54,6.45-12.58,8.33-20.22,4.24-25.8-10.5-50.38-24.01-73.08-40.15-7.55-4.26-10.81-12.89-7.27-19.33s12.61-8.33,20.26-4.22l7.7,3.35ZM-58.43,369.46l-7.84-3.41c-.1-.04-.19-.09-.29-.14-4.27-2.34-9.32-1.7-11.02,1.41-1.71,3.11.46,7.71,4.72,10.06.12.06.23.14.34.21,22.36,15.91,46.59,29.22,72.01,39.56.12.05.24.11.36.17,4.27,2.34,9.32,1.7,11.02-1.41,1.71-3.11-.46-7.71-4.72-10.06-.09-.05-.18-.11-.27-.17l-7.08-4.79c-18.02-12.19-37.28-22.76-57.23-31.44Z"/>
          <path class="cls-2" d="M112.4,535.3L10.2,674.47c-4.46,6.07-13.02,7.38-19.08,2.92l-.4-.29-.72.98c-1.59,2.16-3.95,3.41-6.43,3.67l-.51,5.06c-.07.67-.35,1.3-.81,1.79l-36.34,39.35c-1.07,1.16-2.84,1.33-4.11.39l-8.6-6.31c-1.3-.96-1.65-2.75-.8-4.12l27.77-44.95c.36-.59.91-1.04,1.56-1.28l4.98-1.84c-.7-2.59-.26-5.47,1.45-7.79l.72-.98-.4-.29c-6.07-4.46-7.38-13.02-2.92-19.08l102.19-139.18c4.46-6.07,13.02-7.38,19.08-2.92l.4.29.72-.98c1.71-2.33,4.32-3.61,7-3.72l.26-5.3c.03-.69.3-1.35.75-1.87l34.57-39.95c1.06-1.22,2.87-1.42,4.17-.47l8.6,6.31c1.27.93,1.64,2.67.85,4.04l-26.66,46.45c-.33.58-.85,1.04-1.47,1.3l-4.68,2c.5,2.44.01,5.07-1.58,7.24l-.72.98.4.29c6.07,4.46,7.38,13.02,2.92,19.08ZM101.36,491.26l-.29,5.92,6.77,4.97c.09.07.18.15.27.22l4.56-1.95,24.77-43.15-4.06-2.98-32.01,36.98ZM92.23,503.56l11.85,8.7.72-.98c.8-1.09.73-2.56-.07-3.57l-8.35-6.13c-1.21-.46-2.63-.09-3.43,1l-.72.98ZM-22.51,680.24c-.1-.07-.2-.12-.29-.19l-6.77-4.97-5.56,2.05-25.7,41.61,4.06,2.98,33.76-36.56.5-4.93ZM-14.27,673.44l-11.85-8.7-.72.98c-.8,1.09-.73,2.56.07,3.57l8.35,6.13c1.21.46,2.63.09,3.43-1l.72-.98ZM107.4,531.63c2.43-3.32,1.72-7.99-1.6-10.43l-2.9-2.13-16.84-12.36-2.9-2.13c-3.32-2.43-7.99-1.72-10.43,1.6l-102.19,139.18c-2.43,3.32-1.72,7.99,1.6,10.43l2.9,2.13,16.84,12.36,2.9,2.13c3.32,2.43,7.99,1.72,10.43-1.6l102.19-139.18Z"/>
          <path class="cls-2" d="M123.52,408.7s-.01,0-.02,0l-23.96,6.76c-2.13.6-4.34-.08-5.75-1.79s-1.68-4-.69-5.98l11.09-22.29s0-.01.01-.02c.06-.11.13-.21.2-.31.04-.05.07-.11.11-.17.04-.06.1-.1.15-.16.08-.09.16-.17.25-.25,0,0,0-.01.02-.02l84.3-69.88c4.62-3.83,11.49-3.19,15.32,1.43l5.74,6.93c3.83,4.62,3.19,11.49-1.43,15.32l-84.3,69.88s-.01,0-.02.01c-.09.07-.19.13-.29.19-.06.04-.12.09-.18.12-.06.03-.12.05-.18.07-.11.05-.23.1-.35.14ZM113.94,405.55c-.07-.08-.15-.14-.21-.22-.18-.22-.36-.45-.52-.69-1.36-1.96-1.77-4.07-1.82-5.78-2.45-.66-4.41-1.84-5.84-3.53l-4.92,9.88,2.74,3.3,10.56-2.98ZM117.6,397.97c-.06.83-.01,2.14.72,3.18.66.95,1.84,1.59,3.51,1.93l49.84-41.32-4.24-5.11-49.84,41.32ZM189.81,346.73l-12.42-14.99-13.37,11.08,12.42,14.99,13.37-11.08ZM159.25,346.77l-50.01,41.45c.01.85.17,1.97.84,2.88.7.97,1.96,1.63,3.72,1.96l49.68-41.19-4.24-5.11ZM192.82,318.95l-10.66,8.84,12.42,14.99,10.66-8.84c2.22-1.84,2.53-5.15.69-7.37l-5.74-6.93c-1.84-2.22-5.15-2.53-7.37-.69Z"/>
        </g>
        <g>
          <path class="cls-2" d="M1058.74,284.55c.39,1.67-.65,3.33-2.32,3.71l-47.21,10.94-93.02,21.55-47.22,10.94c-1.67.39-3.33-.65-3.71-2.32-10.61-45.81,12.48-91.7,53-111.57-1.23-2.88-3.69-5.5-7.38-7.8-15.97-9.96-12.15-26.48-7.91-33.81.86-1.48,2.75-1.98,4.23-1.13,1.48.86,1.98,2.74,1.13,4.22-.38.66-9.02,16.21,5.82,25.47,4.76,2.97,8.03,6.49,9.77,10.5,5-2.07,10.23-3.77,15.67-5.03.81-.19,1.63-.37,2.44-.53-1.39-1.98-3.41-3.83-6.09-5.5-15.97-9.96-12.15-26.48-7.91-33.81.86-1.48,2.75-1.98,4.23-1.13,1.48.86,1.98,2.74,1.13,4.22-.38.66-9.02,16.21,5.82,25.47,4.42,2.76,7.55,5.98,9.37,9.64,6.86-.94,13.69-1.15,20.38-.67-.89-3.57-3.55-6.77-7.96-9.52-15.97-9.96-12.15-26.48-7.91-33.81.86-1.48,2.75-1.98,4.23-1.13,1.48.86,1.98,2.74,1.13,4.22-.38.66-9.02,16.21,5.82,25.47,6.26,3.91,9.95,8.76,10.96,14.43.06.34.09.67.13,1.01,39.66,5.44,73.8,34.73,83.36,75.99ZM1007.81,293.17c4.84-1.12,8.42-4.68,9.57-9.53,1.14-4.8-.43-9.55-4.22-12.7-3.79-3.15-7.85-5.89-12.14-8.2l.76,1.86c1.58,3.89-.3,8.34-4.19,9.93-3.9,1.57-8.36-.32-9.93-4.2l-5.96-14.69c-7.55-1.64-15.26-2.03-22.99-1.17l3.06,4.31c1.18,1.65,1.64,3.67,1.3,5.68-.34,2.01-1.44,3.76-3.09,4.94-3.43,2.43-8.19,1.62-10.63-1.8l-6.74-9.49c-9.45,3.29-18.17,8.55-25.5,15.38l5.86,4.23c1.65,1.19,2.73,2.95,3.06,4.96.33,2.01-.15,4.03-1.34,5.67-2.47,3.41-7.25,4.17-10.65,1.72l-6.98-5.04c-2.65,3.77-4.95,7.82-6.85,12.06-2.02,4.49-1.35,9.44,1.79,13.25,3.16,3.85,7.95,5.48,12.79,4.35l93.02-21.55ZM1051.96,282.95c-9.84-36.92-40.89-63.03-76.89-68.18-1.09,5.08-3.8,8.64-3.96,8.85-.45.58-1.08.96-1.74,1.11-.88.2-1.84.02-2.6-.57-1.35-1.05-1.59-2.99-.54-4.34.02-.03,1.79-2.39,2.65-5.72-6.09-.45-12.29-.31-18.53.48.86,8.08-4.08,14.56-4.3,14.85-.45.58-1.08.96-1.74,1.11-.88.2-1.84.02-2.6-.57-1.35-1.05-1.59-3-.54-4.34.03-.04,3.49-4.64,3.07-10.06-1.08.21-2.16.43-3.24.68-5.45,1.26-10.67,2.98-15.64,5.11.39,7.62-4.16,13.6-4.37,13.87-.45.58-1.08.96-1.74,1.11-.88.2-1.84.02-2.6-.57-1.35-1.05-1.59-2.99-.54-4.34.02-.03,2.29-3.05,2.94-7.08-35.89,18.68-56.51,59.41-48.38,100.59l30.47-7.06c-1.43-.99-2.74-2.2-3.89-3.59-4.59-5.59-5.61-13.14-2.65-19.72,2.51-5.61,5.66-10.89,9.37-15.72,1.02-1.33,2.91-1.61,4.27-.62l9.47,6.84c.64.46,1.54.31,2.01-.33.29-.41.28-.83.24-1.05-.04-.22-.16-.63-.57-.93l-8.83-6.39c-.73-.53-1.19-1.34-1.27-2.24-.08-.9.24-1.78.86-2.43,9.06-9.33,20.39-16.32,32.78-20.19,1.28-.4,2.67.07,3.45,1.16l8.06,11.35c.46.64,1.35.79,1.99.34.41-.29.54-.7.57-.92.04-.22.05-.65-.25-1.07l-5.99-8.44c-.61-.86-.74-1.98-.34-2.96.4-.98,1.26-1.7,2.32-1.88,10.75-1.93,21.53-1.63,32.01.89.89.22,1.64.82,2.05,1.64.21.42.35.82.45,1.14.04.12.08.23.12.34l6.04,14.9c.3.73,1.14,1.08,1.87.79.72-.29,1.07-1.13.78-1.86l-3.73-9.2c-.47-1.15-.2-2.47.68-3.35.88-.88,2.2-1.15,3.35-.68,7.49,3.04,14.48,7.24,20.78,12.47,5.55,4.61,7.95,11.85,6.28,18.89-.42,1.76-1.07,3.41-1.91,4.93l30.47-7.06Z"/>
          <path class="cls-2" d="M666.79,180.32l-10.38-8.24c-1.38-1.09-1.61-3.1-.51-4.47l39.61-49.87c1.09-1.38,3.1-1.61,4.47-.51l10.38,8.24c1.38,1.09,1.61,3.1.51,4.47l-.86,1.09,89.23,78.27s0,0,0,0c.15.14.3.29.42.45.13.16.24.34.33.52,0,0,0,.02,0,.02.09.18.16.36.21.55.01.05.02.11.03.16.03.15.06.3.08.46,0,.01,0,.02,0,.04l.86,13.57,1.37,1.08c1.96-1.28,4.6-1.24,6.53.3l5.1,4.05c4.58,3.64,5.35,10.33,1.71,14.91l-8.6,10.83c-3.64,4.58-10.33,5.35-14.91,1.71l-5.1-4.05c-1.93-1.53-2.57-4.09-1.77-6.29l-1.36-1.08-13.47,2.32s-.03,0-.05,0c-.14.02-.28.03-.42.03-.07,0-.14.01-.2,0-.14,0-.29-.03-.43-.06-.06-.01-.12-.01-.18-.02-.14-.03-.28-.09-.42-.14-.05-.02-.11-.03-.16-.06-.06-.03-.12-.07-.19-.11-.12-.06-.24-.12-.35-.2,0,0,0,0,0,0l-46.55-33.4c-.25-.14-.48-.29-.68-.48l-49.22-35.32-.58.73c-1.09,1.38-3.1,1.61-4.47.51ZM794.49,220.15l-16.67,20.99,6.65-1.14c.28-.05.55-.05.81-.02l9.79-12.32c-.08-.25-.14-.51-.16-.78l-.42-6.72ZM753.53,177.67c-4.84,3.45-17.92,14.08-26.33,33.29l42.33,30.37,23.24-29.26-39.23-34.41ZM805.72,231.91l-13.88,17.47,4.49,3.56c1.83,1.45,4.51,1.15,5.96-.68l8.6-10.83c1.46-1.83,1.15-4.51-.68-5.96l-4.49-3.56ZM706.04,136.01l-30.24,38.07,46.12,33.09c3.46-7.61,7.56-13.92,11.6-19.02,5.83-7.34,11.54-12.17,15.09-14.8l-42.57-37.34ZM697,137.15l-5.39-4.28-2.56,3.22,5.39,4.28,2.56-3.22ZM685.09,141.08l-2.56,3.22,5.39,4.28,2.56-3.22-5.39-4.28ZM678.57,149.29l-2.56,3.22,5.39,4.28,2.56-3.22-5.39-4.28ZM672.05,157.49l-2.56,3.22,5.39,4.28,2.56-3.22-5.39-4.28ZM698.51,124.18l-2.94,3.7,5.39,4.28,2.17-2.73.77-.97-5.39-4.28ZM668.25,173.35l.48-.61,2.19-2.76-5.39-4.28-2.67,3.36,5.39,4.28Z"/>
          <path class="cls-2" d="M672.5-25.04c.31-1.68,1.93-2.79,3.61-2.48l50.01,9.26s.04-.03.07-.04c31.19-15.38,72.39-21.75,74.13-22.02,1.17-.18,2.34.33,3.02,1.31l9.32,13.55c.67.98.73,2.25.14,3.28-.19.34-4.35,7.66-11.19,17.9l41.75,7.73c1.68.31,2.79,1.93,2.48,3.61-8.84,47.79-54.92,79.47-102.7,70.62-47.79-8.84-79.47-54.92-70.62-102.7ZM794.96-5.52c1.37-2.01,2.64-3.93,3.81-5.73-1.57,1.69-3.3,3.53-5.18,5.48l1.36.25ZM770.48-10.05l27.44-18.87c-8.28,2.94-23.96,8.8-40.39,16.47l12.95,2.4ZM779.09-8.46l7.2,1.33c7.39-7.58,12.82-13.62,16.04-17.32l-23.24,15.98ZM736.69-16.31l10.52,1.95c14.5-7.21,29.19-13.16,39.72-17.13-12.96,2.76-32.65,7.7-50.24,15.18ZM678.08-20.86c-6.36,43.32,22.76,84.4,66.17,92.43,43.41,8.03,85.3-19.9,94.87-62.63l-161.04-29.81Z"/>
          <path class="cls-2" d="M1006.18-25.01l-102.19,139.18c-4.46,6.07-13.02,7.38-19.08,2.92l-.4-.29-.72.98c-1.59,2.16-3.95,3.41-6.43,3.67l-.51,5.06c-.07.67-.35,1.3-.81,1.79l-36.34,39.35c-1.07,1.16-2.84,1.33-4.11.39l-8.6-6.31c-1.3-.96-1.65-2.75-.8-4.12l27.77-44.95c.36-.59.91-1.04,1.56-1.28l4.98-1.84c-.7-2.59-.26-5.47,1.45-7.79l.72-.98-.4-.29c-6.07-4.46-7.38-13.02-2.92-19.08l102.19-139.18c4.46-6.07,13.02-7.38,19.08-2.92l.4.29.72-.98c1.71-2.33,4.32-3.61,7-3.72l.26-5.3c.03-.69.3-1.35.75-1.87l34.57-39.95c1.06-1.22,2.87-1.42,4.17-.47l8.6,6.31c1.27.93,1.64,2.67.85,4.04l-26.66,46.45c-.33.58-.85,1.04-1.47,1.3l-4.68,2c.5,2.44.01,5.07-1.58,7.24l-.72.98.4.29c6.07,4.46,7.38,13.02,2.92,19.08ZM995.14-69.04l-.29,5.92,6.77,4.97c.09.07.18.15.27.22l4.56-1.95,24.77-43.15-4.06-2.98-32.01,36.98ZM986.01-56.75l11.85,8.7.72-.98c.8-1.09.73-2.56-.07-3.57l-8.35-6.13c-1.21-.46-2.63-.09-3.43,1l-.72.98ZM871.27,119.93c-.1-.07-.2-.12-.29-.19l-6.77-4.97-5.56,2.05-25.7,41.61,4.06,2.98,33.76-36.56.5-4.93ZM879.51,113.14l-11.85-8.7-.72.98c-.8,1.09-.73,2.56.07,3.57l8.35,6.13c1.21.46,2.63.09,3.43-1l.72-.98ZM1001.18-28.67c2.43-3.32,1.72-7.99-1.6-10.43l-2.9-2.13-16.84-12.36-2.9-2.13c-3.32-2.43-7.99-1.72-10.43,1.6l-102.19,139.18c-2.43,3.32-1.72,7.99,1.6,10.43l2.9,2.13,16.84,12.36,2.9,2.13c3.32,2.43,7.99,1.72,10.43-1.6l102.19-139.18Z"/>
        </g>
        <g>
          <path class="cls-2" d="M611.85,564.7c.39,1.67-.65,3.33-2.32,3.71l-47.21,10.94-93.02,21.55-47.22,10.94c-1.67.39-3.33-.65-3.71-2.32-10.61-45.81,12.48-91.7,53-111.57-1.23-2.88-3.69-5.5-7.38-7.8-15.97-9.96-12.15-26.48-7.91-33.81.86-1.48,2.75-1.98,4.23-1.13,1.48.86,1.98,2.74,1.13,4.22-.38.66-9.02,16.21,5.82,25.47,4.76,2.97,8.03,6.49,9.77,10.5,5-2.07,10.23-3.77,15.67-5.03.81-.19,1.63-.37,2.44-.53-1.39-1.98-3.41-3.83-6.09-5.5-15.97-9.96-12.15-26.48-7.91-33.81.86-1.48,2.75-1.98,4.23-1.13,1.48.86,1.98,2.74,1.13,4.22-.38.66-9.02,16.21,5.82,25.47,4.42,2.76,7.55,5.98,9.37,9.64,6.86-.94,13.69-1.15,20.38-.67-.89-3.57-3.55-6.77-7.96-9.52-15.97-9.96-12.15-26.48-7.91-33.81.86-1.48,2.75-1.98,4.23-1.13,1.48.86,1.98,2.74,1.13,4.22-.38.66-9.02,16.21,5.82,25.47,6.26,3.91,9.95,8.76,10.96,14.43.06.34.09.67.13,1.01,39.66,5.44,73.8,34.73,83.36,75.99ZM560.92,573.32c4.84-1.12,8.42-4.68,9.57-9.53,1.14-4.8-.43-9.55-4.22-12.7-3.79-3.15-7.85-5.89-12.14-8.2l.76,1.86c1.58,3.89-.3,8.34-4.19,9.93-3.9,1.57-8.36-.32-9.93-4.2l-5.96-14.69c-7.55-1.64-15.26-2.03-22.99-1.17l3.06,4.31c1.18,1.65,1.64,3.67,1.3,5.68-.34,2.01-1.44,3.76-3.09,4.94-3.43,2.43-8.19,1.62-10.63-1.8l-6.74-9.49c-9.45,3.29-18.17,8.55-25.5,15.38l5.86,4.23c1.65,1.19,2.73,2.95,3.06,4.96.33,2.01-.15,4.03-1.34,5.67-2.47,3.41-7.25,4.17-10.65,1.72l-6.98-5.04c-2.65,3.77-4.95,7.82-6.85,12.06-2.02,4.49-1.35,9.44,1.79,13.25,3.16,3.85,7.95,5.48,12.79,4.35l93.02-21.55ZM605.07,563.1c-9.84-36.92-40.89-63.03-76.89-68.18-1.09,5.08-3.8,8.64-3.96,8.85-.45.58-1.08.96-1.74,1.11-.88.2-1.84.02-2.6-.57-1.35-1.05-1.59-2.99-.54-4.34.02-.03,1.79-2.39,2.65-5.72-6.09-.45-12.29-.31-18.53.48.86,8.08-4.08,14.56-4.3,14.85-.45.58-1.08.96-1.74,1.11-.88.2-1.84.02-2.6-.57-1.35-1.05-1.59-3-.54-4.34.03-.04,3.49-4.64,3.07-10.06-1.08.21-2.16.43-3.24.68-5.45,1.26-10.67,2.98-15.64,5.11.39,7.62-4.16,13.6-4.37,13.87-.45.58-1.08.96-1.74,1.11-.88.2-1.84.02-2.6-.57-1.35-1.05-1.59-2.99-.54-4.34.02-.03,2.29-3.05,2.94-7.08-35.89,18.68-56.51,59.41-48.38,100.59l30.47-7.06c-1.43-.99-2.74-2.2-3.89-3.59-4.59-5.59-5.61-13.14-2.65-19.72,2.51-5.61,5.66-10.89,9.37-15.72,1.02-1.33,2.91-1.61,4.27-.62l9.47,6.84c.64.46,1.54.31,2.01-.33.29-.41.28-.83.24-1.05-.04-.22-.16-.63-.57-.93l-8.83-6.39c-.73-.53-1.19-1.34-1.27-2.24-.08-.9.24-1.78.86-2.43,9.06-9.33,20.39-16.32,32.78-20.19,1.28-.4,2.67.07,3.45,1.16l8.06,11.35c.46.64,1.35.79,1.99.34.41-.29.54-.7.57-.92.04-.22.05-.65-.25-1.07l-5.99-8.44c-.61-.86-.74-1.98-.34-2.96.4-.98,1.26-1.7,2.32-1.88,10.75-1.93,21.53-1.63,32.01.89.89.22,1.64.82,2.05,1.64.21.42.35.82.45,1.14.04.12.08.23.12.34l6.04,14.9c.3.73,1.14,1.08,1.87.79.72-.29,1.07-1.13.78-1.86l-3.73-9.2c-.47-1.15-.2-2.47.68-3.35.88-.88,2.2-1.15,3.35-.68,7.49,3.04,14.48,7.24,20.78,12.47,5.55,4.61,7.95,11.85,6.28,18.89-.42,1.76-1.07,3.41-1.91,4.93l30.47-7.06Z"/>
          <path class="cls-2" d="M219.9,460.47l-10.38-8.24c-1.38-1.09-1.61-3.1-.51-4.47l39.61-49.87c1.09-1.38,3.1-1.61,4.47-.51l10.38,8.24c1.38,1.09,1.61,3.1.51,4.47l-.86,1.09,89.23,78.27s0,0,0,0c.15.14.3.29.42.45.13.16.24.34.33.52,0,0,0,.02,0,.02.09.18.16.36.21.55.01.05.02.11.03.16.03.15.06.3.08.46,0,.01,0,.02,0,.04l.86,13.57,1.37,1.08c1.96-1.28,4.6-1.24,6.53.3l5.1,4.05c4.58,3.64,5.35,10.33,1.71,14.91l-8.6,10.83c-3.64,4.58-10.33,5.35-14.91,1.71l-5.1-4.05c-1.93-1.53-2.57-4.09-1.77-6.29l-1.36-1.08-13.47,2.32s-.03,0-.05,0c-.14.02-.28.03-.42.03-.07,0-.14.01-.2,0-.14,0-.29-.03-.43-.06-.06-.01-.12-.01-.18-.02-.14-.03-.28-.09-.42-.14-.05-.02-.11-.03-.16-.06-.06-.03-.12-.07-.19-.11-.12-.06-.24-.12-.35-.2,0,0,0,0,0,0l-46.55-33.4c-.25-.14-.48-.29-.68-.48l-49.22-35.32-.58.73c-1.09,1.38-3.1,1.61-4.47.51ZM347.6,500.3l-16.67,20.99,6.65-1.14c.28-.05.55-.05.81-.02l9.79-12.32c-.08-.25-.14-.51-.16-.78l-.42-6.72ZM306.64,457.82c-4.84,3.45-17.92,14.08-26.33,33.29l42.33,30.37,23.24-29.26-39.23-34.41ZM358.83,512.06l-13.88,17.47,4.49,3.56c1.83,1.45,4.51,1.15,5.96-.68l8.6-10.83c1.46-1.83,1.15-4.51-.68-5.96l-4.49-3.56ZM259.15,416.16l-30.24,38.07,46.12,33.09c3.46-7.61,7.56-13.92,11.6-19.02,5.83-7.34,11.54-12.17,15.09-14.8l-42.57-37.34ZM250.11,417.3l-5.39-4.28-2.56,3.22,5.39,4.28,2.56-3.22ZM238.2,421.23l-2.56,3.22,5.39,4.28,2.56-3.22-5.39-4.28ZM231.68,429.44l-2.56,3.22,5.39,4.28,2.56-3.22-5.39-4.28ZM225.16,437.64l-2.56,3.22,5.39,4.28,2.56-3.22-5.39-4.28ZM251.62,404.33l-2.94,3.7,5.39,4.28,2.17-2.73.77-.97-5.39-4.28ZM221.36,453.5l.48-.61,2.19-2.76-5.39-4.28-2.67,3.36,5.39,4.28Z"/>
          <g>
            <path class="cls-2" d="M631.46,344.69c.62,3.69,14.78,90.59-14.52,116.51-8.44,7.46-19.51,9.23-32.91,5.26,0,0-.01,0-.02,0,0,0,0,0,0,0-.06-.02-.11-.04-.17-.06-13.27-3.99-21.53-11.48-24.53-22.29-10.49-37.72,48.54-102.91,51.06-105.67.8-.88,2.03-1.22,3.17-.88l15.77,4.68c1.13.34,1.98,1.29,2.17,2.46ZM577.49,452.84c1.09,2.94,2.87,5.08,5.39,6.48l32.75-110.41c-11.45,18.83-46.94,80.25-38.14,103.93ZM621.88,349.63l-33.04,111.41c2.52.1,4.88-.67,7.14-2.32,18.43-13.44,24.71-78.79,25.91-109.1ZM570.88,452.28c-5.91-24.7,20.54-74.45,34.68-98.61-16.3,20.11-47.47,62.97-40.29,88.78,1.06,3.81,2.92,7.07,5.61,9.82ZM627.41,361.87c-1.86,28.55-7.71,83.26-25.65,100.07,4.18-.74,7.85-2.52,11.08-5.37,19.61-17.34,17.27-68.35,14.57-94.7Z"/>
            <path class="cls-2" d="M657.6,253.09c-.45,1.5-1.24,2.86-2.29,3.98,1.88,3.07,2.51,6.89,1.41,10.61l-18.2,61.36c-2.06,6.96-9.41,10.95-16.37,8.88-6.96-2.06-10.95-9.41-8.88-16.37l18.2-61.36c1.1-3.7,3.7-6.55,6.93-8.11-.29-1.53-.21-3.09.24-4.62l.8-2.7c1.55-5.23,7.07-8.22,12.29-6.67,5.23,1.55,8.22,7.07,6.67,12.29l-.8,2.7ZM650.78,265.92c1.09-3.69-1.02-7.58-4.71-8.67s-7.58,1.02-8.67,4.71l-18.2,61.36c-1.09,3.69,1.02,7.58,4.71,8.67s7.58-1.02,8.67-4.71l18.2-61.36ZM650.91,252.69c.34-.39.6-.85.75-1.35l.8-2.7c.58-1.95-.54-4.02-2.49-4.6s-4.02.54-4.6,2.49l-.8,2.7c-.15.51-.18,1.04-.11,1.56,1.12.03,2.25.19,3.37.52s2.13.8,3.07,1.38Z"/>
          </g>
          <g>
            <path class="cls-2" d="M225.61,255.11c.31-1.68,1.93-2.79,3.61-2.48l50.01,9.26s.04-.03.07-.04c31.19-15.38,72.39-21.75,74.13-22.02,1.17-.18,2.34.33,3.02,1.31l9.32,13.55c.67.98.73,2.25.14,3.28-.19.34-4.35,7.66-11.19,17.9l41.75,7.73c1.68.31,2.79,1.93,2.48,3.61-8.84,47.79-54.92,79.47-102.7,70.62-47.79-8.84-79.47-54.92-70.62-102.7ZM348.07,274.63c1.37-2.01,2.64-3.93,3.81-5.73-1.57,1.69-3.3,3.53-5.18,5.48l1.36.25ZM323.59,270.1l27.44-18.87c-8.28,2.94-23.96,8.8-40.39,16.47l12.95,2.4ZM332.2,271.69l7.2,1.33c7.39-7.58,12.82-13.62,16.04-17.32l-23.24,15.98ZM289.8,263.85l10.52,1.95c14.5-7.21,29.19-13.16,39.72-17.13-12.96,2.76-32.65,7.7-50.24,15.18ZM231.19,259.29c-6.36,43.32,22.76,84.4,66.17,92.43,43.41,8.03,85.3-19.9,94.87-62.63l-161.04-29.81Z"/>
            <path class="cls-2" d="M362.82,246.82c-4.3-6.25-2.71-14.84,3.54-19.14l32.19-22.13c3.03-2.08,6.69-2.86,10.3-2.19.27.05.53.12.79.19.7-1.1,1.62-2.06,2.73-2.82l2.32-1.6c4.49-3.09,10.66-1.95,13.75,2.54,3.09,4.49,1.95,10.66-2.55,13.75l-2.32,1.6c-1.1.75-2.32,1.26-3.59,1.53-.46,3.78-2.46,7.36-5.84,9.68l-32.19,22.13c-3.03,2.08-6.69,2.86-10.3,2.19s-6.75-2.71-8.84-5.74ZM415.24,206.4c.92.78,1.74,1.67,2.44,2.69.7,1.02,1.23,2.1,1.62,3.22.27-.1.52-.23.76-.39l2.32-1.6c.81-.56,1.36-1.4,1.54-2.37s-.03-1.95-.59-2.77c-1.16-1.68-3.46-2.11-5.14-.95l-2.32,1.6c-.24.17-.45.36-.64.57ZM367.92,243.32c1.15,1.67,2.87,2.79,4.86,3.15s4-.06,5.67-1.21l32.19-22.13c3.44-2.36,4.31-7.09,1.95-10.53-1.15-1.67-2.87-2.79-4.86-3.15s-4,.06-5.67,1.21l-32.19,22.13c-3.44,2.36-4.31,7.09-1.95,10.53Z"/>
          </g>
          <g>
            <path class="cls-2" d="M391.22,82.98c20.34,8.84,39.97,19.63,58.34,32.05l6.96,4.71c7.58,4.25,10.85,12.9,7.31,19.36s-12.58,8.33-20.22,4.24c-25.8-10.5-50.38-24.01-73.08-40.15-7.55-4.26-10.81-12.89-7.27-19.33s12.61-8.33,20.26-4.22l7.7,3.35ZM388.46,89.31l-7.84-3.41c-.1-.04-.19-.09-.29-.14-4.27-2.34-9.32-1.7-11.02,1.41-1.71,3.11.46,7.71,4.72,10.06.12.06.23.14.34.21,22.36,15.91,46.59,29.22,72.01,39.56.12.05.24.11.36.17,4.27,2.34,9.32,1.7,11.02-1.41,1.71-3.11-.46-7.71-4.72-10.06-.09-.05-.18-.11-.27-.17l-7.08-4.79c-18.02-12.19-37.28-22.76-57.23-31.44Z"/>
            <path class="cls-2" d="M337.74,88.43c-2.55-.17-4.99-.88-7.24-2.12-2.17-1.19-4.03-2.81-5.52-4.8-.11-.12-.22-.26-.31-.4l-.19-.29c-.14-.2-.32-.48-.49-.77-.03-.04-.05-.08-.07-.13l-1.36-2.51c-2.63-1.05-4.9-2.89-6.45-5.34l-4.68-7.42c-4.07-6.46-5.38-14.29-3.62-21.72.51-2.14,3.22-2.8,4.65-1.13l3.67,4.28c1.79,2.08,4.31,3.41,7.04,3.71l3.82.42c2.4.26,4.51,1.64,5.75,3.68l4.26-.15c.84-.09,1.7-.12,2.57-.09h.07c.21,0,.42,0,.63.04,2.49.19,4.85.89,7.02,2.09s4.08,2.84,5.57,4.84c.09.12.16.25.22.37l12.49,10.66c.65.55,1.04,1.35,1.08,2.21.04.85-.27,1.69-.87,2.3l-.35.36c-3.54,3.66-6.1,8.2-7.38,13.13l-.14.55c-.43,1.64-2.1,2.63-3.75,2.22l-15.99-3.99c-.15.01-.29.03-.44.02ZM350.71,67.09l-.84.86c-3.54,3.66-6.1,8.2-7.38,13.13l-.49,1.9,10.78,2.69c.58-1.72,1.3-3.39,2.13-5l-5.15-3.53c-1.33-.91-1.72-2.66-.97-4.04.05-.09.1-.18.16-.26.97-1.41,2.89-1.77,4.3-.8l4.95,3.39c.3-.39.6-.78.91-1.16l-8.42-7.19ZM345.43,63.65l.96-.99c-.63-.56-1.32-1.06-2.08-1.48-1.46-.8-3.06-1.26-4.75-1.36-.03,0-.05,0-.08,0-.02,0-.04,0-.06,0-.62-.03-1.23,0-1.82.06-.09.01-.17.02-.26.02l-8.14.28-2.52,1.96c-.31.24-.68.42-1.07.5l-.61.14c-1.13.25-1.94,1.19-2.08,2.3l1.69,3.12,4.45,4.33c.7.68.97,1.68.72,2.62l-.33,1.23c-.04.16-.1.31-.17.46l.03.06c.1.16.21.33.31.48l.05.08s.07.09.1.13c.99,1.38,2.23,2.48,3.69,3.28.77.42,1.58.75,2.41.98l.61-2.33c.75-2.87,1.85-5.63,3.27-8.21,1.53-2.79,3.43-5.37,5.66-7.67Z"/>
            <path class="cls-2" d="M300.39,50.98c.84,1.27,2.79.95,3.09-.55.65-3.27.99-7.31-.05-11.01-2.23-7.94-16.15-9.76-17.17,1.09,0,0-.55,5.53,8.15,7.01,3.15.54,4.96,1.92,5.98,3.46Z"/>
          </g>
          <path class="cls-2" d="M559.29,255.15l-102.19,139.18c-4.46,6.07-13.02,7.38-19.08,2.92l-.4-.29-.72.98c-1.59,2.16-3.95,3.41-6.43,3.67l-.51,5.06c-.07.67-.35,1.3-.81,1.79l-36.34,39.35c-1.07,1.16-2.84,1.33-4.11.39l-8.6-6.31c-1.3-.96-1.65-2.75-.8-4.12l27.77-44.95c.36-.59.91-1.04,1.56-1.28l4.98-1.84c-.7-2.59-.26-5.47,1.45-7.79l.72-.98-.4-.29c-6.07-4.46-7.38-13.02-2.92-19.08l102.19-139.18c4.46-6.07,13.02-7.38,19.08-2.92l.4.29.72-.98c1.71-2.33,4.32-3.61,7-3.72l.26-5.3c.03-.69.3-1.35.75-1.87l34.57-39.95c1.06-1.22,2.87-1.42,4.17-.47l8.6,6.31c1.27.93,1.64,2.67.85,4.04l-26.66,46.45c-.33.58-.85,1.04-1.47,1.3l-4.68,2c.5,2.44.01,5.07-1.58,7.24l-.72.98.4.29c6.07,4.46,7.38,13.02,2.92,19.08ZM548.25,211.11l-.29,5.92,6.77,4.97c.09.07.18.15.27.22l4.56-1.95,24.77-43.15-4.06-2.98-32.01,36.98ZM539.12,223.4l11.85,8.7.72-.98c.8-1.09.73-2.56-.07-3.57l-8.35-6.13c-1.21-.46-2.63-.09-3.43,1l-.72.98ZM424.38,400.09c-.1-.07-.2-.12-.29-.19l-6.77-4.97-5.56,2.05-25.7,41.61,4.06,2.98,33.76-36.56.5-4.93ZM432.62,393.29l-11.85-8.7-.72.98c-.8,1.09-.73,2.56.07,3.57l8.35,6.13c1.21.46,2.63.09,3.43-1l.72-.98ZM554.29,251.48c2.43-3.32,1.72-7.99-1.6-10.43l-2.9-2.13-16.84-12.36-2.9-2.13c-3.32-2.43-7.99-1.72-10.43,1.6l-102.19,139.18c-2.43,3.32-1.72,7.99,1.6,10.43l2.9,2.13,16.84,12.36,2.9,2.13c3.32,2.43,7.99,1.72,10.43-1.6l102.19-139.18Z"/>
          <path class="cls-2" d="M570.41,128.55s-.01,0-.02,0l-23.96,6.76c-2.13.6-4.34-.08-5.75-1.79-1.41-1.71-1.68-4-.69-5.98l11.09-22.29s0-.01.01-.02c.06-.11.13-.21.2-.31.04-.05.07-.11.11-.17.04-.06.1-.1.15-.16.08-.09.16-.17.25-.25,0,0,0-.01.02-.02l84.3-69.88c4.62-3.83,11.49-3.19,15.32,1.43l5.74,6.93c3.83,4.62,3.19,11.49-1.43,15.32l-84.3,69.88s-.01,0-.02.01c-.09.07-.19.13-.29.19-.06.04-.12.09-.18.12-.06.03-.12.05-.18.07-.11.05-.23.1-.35.14ZM560.83,125.39c-.07-.08-.15-.14-.21-.22-.18-.22-.36-.45-.52-.69-1.36-1.96-1.77-4.07-1.82-5.78-2.45-.66-4.41-1.84-5.84-3.53l-4.92,9.88,2.74,3.3,10.56-2.98ZM564.49,117.82c-.06.83-.01,2.14.72,3.18.66.95,1.84,1.59,3.51,1.93l49.84-41.32-4.24-5.11-49.84,41.32ZM636.7,66.58l-12.42-14.99-13.37,11.08,12.42,14.99,13.37-11.08ZM606.14,66.62l-50.01,41.45c.01.85.17,1.97.84,2.88.7.97,1.96,1.63,3.72,1.96l49.68-41.19-4.24-5.11ZM639.71,38.8l-10.66,8.84,12.42,14.99,10.66-8.84c2.22-1.84,2.53-5.15.69-7.37l-5.74-6.93c-1.84-2.22-5.15-2.53-7.37-.69Z"/>
          <path class="cls-2" d="M330.95,168.66s0,.01,0,.02l9.73,22.91c.87,2.04.46,4.31-1.05,5.93s-3.75,2.17-5.85,1.44l-23.51-8.18s-.01,0-.02,0c-.12-.04-.22-.1-.34-.16-.06-.03-.12-.05-.18-.09-.06-.04-.12-.09-.17-.13-.1-.07-.19-.13-.28-.21,0,0-.01,0-.02-.01l-79.98-74.79c-4.38-4.1-4.61-10.99-.52-15.38l6.15-6.57c4.1-4.38,10.99-4.61,15.38-.52l79.98,74.79s0,.01.01.02c.08.08.15.17.23.26.05.06.1.11.14.17.04.05.06.11.1.17.06.11.13.21.18.33ZM329.03,178.57c-.07.08-.12.16-.19.24-.2.21-.4.41-.62.6-1.77,1.59-3.82,2.27-5.5,2.53-.35,2.52-1.27,4.61-2.76,6.24l10.43,3.63,2.93-3.13-4.29-10.1ZM321.05,175.9c.83-.04,2.12-.26,3.06-1.12.86-.78,1.34-2.03,1.47-3.73l-47.29-44.22-4.53,4.85,47.29,44.22ZM261.09,110.74l-13.3,14.22,12.68,11.86,13.3-14.22-12.68-11.86ZM265,141.05l47.44,44.36c.85-.12,1.93-.42,2.75-1.2.87-.82,1.37-2.15,1.48-3.93l-47.13-44.08-4.53,4.85ZM233.16,111.27l10.11,9.46,13.3-14.22-10.11-9.46c-2.11-1.97-5.43-1.86-7.4.25l-6.15,6.57c-1.97,2.11-1.86,5.43.25,7.4Z"/>
        </g>
        <g>
          <path class="cls-2" d="M164.96,284.55c.39,1.67-.65,3.33-2.32,3.71l-47.21,10.94-93.02,21.55-47.22,10.94c-1.67.39-3.33-.65-3.71-2.32-10.61-45.81,12.48-91.7,53-111.57-1.23-2.88-3.69-5.5-7.38-7.8-15.97-9.96-12.15-26.48-7.91-33.81.86-1.48,2.75-1.98,4.23-1.13,1.48.86,1.98,2.74,1.13,4.22-.38.66-9.02,16.21,5.82,25.47,4.76,2.97,8.03,6.49,9.77,10.5,5-2.07,10.23-3.77,15.67-5.03.81-.19,1.63-.37,2.44-.53-1.39-1.98-3.41-3.83-6.09-5.5-15.97-9.96-12.15-26.48-7.91-33.81.86-1.48,2.75-1.98,4.23-1.13,1.48.86,1.98,2.74,1.13,4.22-.38.66-9.02,16.21,5.82,25.47,4.42,2.76,7.55,5.98,9.37,9.64,6.86-.94,13.69-1.15,20.38-.67-.89-3.57-3.55-6.77-7.96-9.52-15.97-9.96-12.15-26.48-7.91-33.81.86-1.48,2.75-1.98,4.23-1.13,1.48.86,1.98,2.74,1.13,4.22-.38.66-9.02,16.21,5.82,25.47,6.26,3.91,9.95,8.76,10.96,14.43.06.34.09.67.13,1.01,39.66,5.44,73.8,34.73,83.36,75.99ZM114.03,293.17c4.84-1.12,8.42-4.68,9.57-9.53,1.14-4.8-.43-9.55-4.22-12.7-3.79-3.15-7.85-5.89-12.14-8.2l.76,1.86c1.58,3.89-.3,8.34-4.19,9.93-3.9,1.57-8.36-.32-9.93-4.2l-5.96-14.69c-7.55-1.64-15.26-2.03-22.99-1.17l3.06,4.31c1.18,1.65,1.64,3.67,1.3,5.68-.34,2.01-1.44,3.76-3.09,4.94-3.43,2.43-8.19,1.62-10.63-1.8l-6.74-9.49c-9.45,3.29-18.17,8.55-25.5,15.38l5.86,4.23c1.65,1.19,2.73,2.95,3.06,4.96.33,2.01-.15,4.03-1.34,5.67-2.47,3.41-7.25,4.17-10.65,1.72l-6.98-5.04c-2.65,3.77-4.95,7.82-6.85,12.06-2.02,4.49-1.35,9.44,1.79,13.25,3.16,3.85,7.95,5.48,12.79,4.35l93.02-21.55ZM158.18,282.95c-9.84-36.92-40.89-63.03-76.89-68.18-1.09,5.08-3.8,8.64-3.96,8.85-.45.58-1.08.96-1.74,1.11-.88.2-1.84.02-2.6-.57-1.35-1.05-1.59-2.99-.54-4.34.02-.03,1.79-2.39,2.65-5.72-6.09-.45-12.29-.31-18.53.48.86,8.08-4.08,14.56-4.3,14.85-.45.58-1.08.96-1.74,1.11-.88.2-1.84.02-2.6-.57-1.35-1.05-1.59-3-.54-4.34.03-.04,3.49-4.64,3.07-10.06-1.08.21-2.16.43-3.24.68-5.45,1.26-10.67,2.98-15.64,5.11.39,7.62-4.16,13.6-4.37,13.87-.45.58-1.08.96-1.74,1.11-.88.2-1.84.02-2.6-.57-1.35-1.05-1.59-2.99-.54-4.34.02-.03,2.29-3.05,2.94-7.08-35.89,18.68-56.51,59.41-48.38,100.59l30.47-7.06c-1.43-.99-2.74-2.2-3.89-3.59-4.59-5.59-5.61-13.14-2.65-19.72,2.51-5.61,5.66-10.89,9.37-15.72,1.02-1.33,2.91-1.61,4.27-.62l9.47,6.84c.64.46,1.54.31,2.01-.33.29-.41.28-.83.24-1.05-.04-.22-.16-.63-.57-.93l-8.83-6.39c-.73-.53-1.19-1.34-1.27-2.24-.08-.9.24-1.78.86-2.43,9.06-9.33,20.39-16.32,32.78-20.19,1.28-.4,2.67.07,3.45,1.16l8.06,11.35c.46.64,1.35.79,1.99.34.41-.29.54-.7.57-.92.04-.22.05-.65-.25-1.07l-5.99-8.44c-.61-.86-.74-1.98-.34-2.96.4-.98,1.26-1.7,2.32-1.88,10.75-1.93,21.53-1.63,32.01.89.89.22,1.64.82,2.05,1.64.21.42.35.82.45,1.14.04.12.08.23.12.34l6.04,14.9c.3.73,1.14,1.08,1.87.79.72-.29,1.07-1.13.78-1.86l-3.73-9.2c-.47-1.15-.2-2.47.68-3.35.88-.88,2.2-1.15,3.35-.68,7.49,3.04,14.48,7.24,20.78,12.47,5.55,4.61,7.95,11.85,6.28,18.89-.42,1.76-1.07,3.41-1.91,4.93l30.47-7.06Z"/>
          <g>
            <path class="cls-2" d="M184.57,64.54c.62,3.69,14.78,90.59-14.52,116.51-8.44,7.46-19.51,9.23-32.91,5.26,0,0-.01,0-.02,0,0,0,0,0,0,0-.06-.02-.11-.04-.17-.06-13.27-3.99-21.53-11.48-24.53-22.29-10.49-37.72,48.54-102.91,51.06-105.67.8-.88,2.03-1.22,3.17-.88l15.77,4.68c1.13.34,1.98,1.29,2.17,2.46ZM130.6,172.69c1.09,2.94,2.87,5.08,5.39,6.48l32.75-110.41c-11.45,18.83-46.94,80.25-38.14,103.93ZM174.99,69.48l-33.04,111.41c2.52.1,4.88-.67,7.14-2.32,18.43-13.44,24.71-78.79,25.91-109.1ZM123.99,172.13c-5.91-24.7,20.54-74.45,34.68-98.61-16.3,20.11-47.47,62.97-40.29,88.78,1.06,3.81,2.92,7.07,5.61,9.82ZM180.52,81.72c-1.86,28.55-7.71,83.26-25.65,100.07,4.18-.74,7.85-2.52,11.08-5.37,19.61-17.34,17.27-68.35,14.57-94.7Z"/>
            <path class="cls-2" d="M210.71-27.06c-.45,1.5-1.24,2.86-2.29,3.98,1.88,3.07,2.51,6.89,1.41,10.61l-18.2,61.36c-2.06,6.96-9.41,10.95-16.37,8.88-6.96-2.06-10.95-9.41-8.88-16.37l18.2-61.36c1.1-3.7,3.7-6.55,6.93-8.11-.29-1.53-.21-3.09.24-4.62l.8-2.7c1.55-5.23,7.07-8.22,12.29-6.67,5.23,1.55,8.22,7.07,6.67,12.29l-.8,2.7ZM203.89-14.23c1.09-3.69-1.02-7.58-4.71-8.67s-7.58,1.02-8.67,4.71l-18.2,61.36c-1.09,3.69,1.02,7.58,4.71,8.67s7.58-1.02,8.67-4.71l18.2-61.36ZM204.02-27.46c.34-.39.6-.85.75-1.35l.8-2.7c.58-1.95-.54-4.02-2.49-4.6s-4.02.54-4.6,2.49l-.8,2.7c-.15.51-.18,1.04-.11,1.56,1.12.03,2.25.19,3.37.52s2.13.8,3.07,1.38Z"/>
          </g>
          <path class="cls-2" d="M112.4-25.01L10.2,114.17c-4.46,6.07-13.02,7.38-19.08,2.92l-.4-.29-.72.98c-1.59,2.16-3.95,3.41-6.43,3.67l-.51,5.06c-.07.67-.35,1.3-.81,1.79l-36.34,39.35c-1.07,1.16-2.84,1.33-4.11.39l-8.6-6.31c-1.3-.96-1.65-2.75-.8-4.12l27.77-44.95c.36-.59.91-1.04,1.56-1.28l4.98-1.84c-.7-2.59-.26-5.47,1.45-7.79l.72-.98-.4-.29c-6.07-4.46-7.38-13.02-2.92-19.08L67.76-57.78c4.46-6.07,13.02-7.38,19.08-2.92l.4.29.72-.98c1.71-2.33,4.32-3.61,7-3.72l.26-5.3c.03-.69.3-1.35.75-1.87l34.57-39.95c1.06-1.22,2.87-1.42,4.17-.47l8.6,6.31c1.27.93,1.64,2.67.85,4.04l-26.66,46.45c-.33.58-.85,1.04-1.47,1.3l-4.68,2c.5,2.44.01,5.07-1.58,7.24l-.72.98.4.29c6.07,4.46,7.38,13.02,2.92,19.08ZM101.36-69.04l-.29,5.92,6.77,4.97c.09.07.18.15.27.22l4.56-1.95,24.77-43.15-4.06-2.98-32.01,36.98ZM92.23-56.75l11.85,8.7.72-.98c.8-1.09.73-2.56-.07-3.57l-8.35-6.13c-1.21-.46-2.63-.09-3.43,1l-.72.98ZM-22.51,119.93c-.1-.07-.2-.12-.29-.19l-6.77-4.97-5.56,2.05-25.7,41.61,4.06,2.98,33.76-36.56.5-4.93ZM-14.27,113.14l-11.85-8.7-.72.98c-.8,1.09-.73,2.56.07,3.57l8.35,6.13c1.21.46,2.63.09,3.43-1l.72-.98ZM107.4-28.67c2.43-3.32,1.72-7.99-1.6-10.43l-2.9-2.13-16.84-12.36-2.9-2.13c-3.32-2.43-7.99-1.72-10.43,1.6L-29.44,85.06c-2.43,3.32-1.72,7.99,1.6,10.43l2.9,2.13,16.84,12.36,2.9,2.13c3.32,2.43,7.99,1.72,10.43-1.6L107.4-28.67Z"/>
        </g>
        <path class="cls-2" d="M611.85,4.4c.39,1.67-.65,3.33-2.32,3.71l-47.21,10.94-93.02,21.55-47.22,10.94c-1.67.39-3.33-.65-3.71-2.32-10.61-45.81,12.48-91.7,53-111.57-1.23-2.88-3.69-5.5-7.38-7.8-15.97-9.96-12.15-26.48-7.91-33.81.86-1.48,2.75-1.98,4.23-1.13,1.48.86,1.98,2.74,1.13,4.22-.38.66-9.02,16.21,5.82,25.47,4.76,2.97,8.03,6.49,9.77,10.5,5-2.07,10.23-3.77,15.67-5.03.81-.19,1.63-.37,2.44-.53-1.39-1.98-3.41-3.83-6.09-5.5-15.97-9.96-12.15-26.48-7.91-33.81.86-1.48,2.75-1.98,4.23-1.13,1.48.86,1.98,2.74,1.13,4.22-.38.66-9.02,16.21,5.82,25.47,4.42,2.76,7.55,5.98,9.37,9.64,6.86-.94,13.69-1.15,20.38-.67-.89-3.57-3.55-6.77-7.96-9.52-15.97-9.96-12.15-26.48-7.91-33.81.86-1.48,2.75-1.98,4.23-1.13,1.48.86,1.98,2.74,1.13,4.22-.38.66-9.02,16.21,5.82,25.47,6.26,3.91,9.95,8.76,10.96,14.43.06.34.09.67.13,1.01,39.66,5.44,73.8,34.73,83.36,75.99ZM560.92,13.02c4.84-1.12,8.42-4.68,9.57-9.53,1.14-4.8-.43-9.55-4.22-12.7-3.79-3.15-7.85-5.89-12.14-8.2l.76,1.86c1.58,3.89-.3,8.34-4.19,9.93-3.9,1.57-8.36-.32-9.93-4.2l-5.96-14.69c-7.55-1.64-15.26-2.03-22.99-1.17l3.06,4.31c1.18,1.65,1.64,3.67,1.3,5.68-.34,2.01-1.44,3.76-3.09,4.94-3.43,2.43-8.19,1.62-10.63-1.8l-6.74-9.49c-9.45,3.29-18.17,8.55-25.5,15.38l5.86,4.23c1.65,1.19,2.73,2.95,3.06,4.96.33,2.01-.15,4.03-1.34,5.67-2.47,3.41-7.25,4.17-10.65,1.72l-6.98-5.04c-2.65,3.77-4.95,7.82-6.85,12.06-2.02,4.49-1.35,9.44,1.79,13.25,3.16,3.85,7.95,5.48,12.79,4.35l93.02-21.55ZM605.07,2.8c-9.84-36.92-40.89-63.03-76.89-68.18-1.09,5.08-3.8,8.64-3.96,8.85-.45.58-1.08.96-1.74,1.11-.88.2-1.84.02-2.6-.57-1.35-1.05-1.59-2.99-.54-4.34.02-.03,1.79-2.39,2.65-5.72-6.09-.45-12.29-.31-18.53.48.86,8.08-4.08,14.56-4.3,14.85-.45.58-1.08.96-1.74,1.11-.88.2-1.84.02-2.6-.57-1.35-1.05-1.59-3-.54-4.34.03-.04,3.49-4.64,3.07-10.06-1.08.21-2.16.43-3.24.68-5.45,1.26-10.67,2.98-15.64,5.11.39,7.62-4.16,13.6-4.37,13.87-.45.58-1.08.96-1.74,1.11-.88.2-1.84.02-2.6-.57-1.35-1.05-1.59-2.99-.54-4.34.02-.03,2.29-3.05,2.94-7.08-35.89,18.68-56.51,59.41-48.38,100.59l30.47-7.06c-1.43-.99-2.74-2.2-3.89-3.59-4.59-5.59-5.61-13.14-2.65-19.72,2.51-5.61,5.66-10.89,9.37-15.72,1.02-1.33,2.91-1.61,4.27-.62l9.47,6.84c.64.46,1.54.31,2.01-.33.29-.41.28-.83.24-1.05-.04-.22-.16-.63-.57-.93l-8.83-6.39c-.73-.53-1.19-1.34-1.27-2.24-.08-.9.24-1.78.86-2.43,9.06-9.33,20.39-16.32,32.78-20.19,1.28-.4,2.67.07,3.45,1.16l8.06,11.35c.46.64,1.35.79,1.99.34.41-.29.54-.7.57-.92.04-.22.05-.65-.25-1.07l-5.99-8.44c-.61-.86-.74-1.98-.34-2.96.4-.98,1.26-1.7,2.32-1.88,10.75-1.93,21.53-1.63,32.01.89.89.22,1.64.82,2.05,1.64.21.42.35.82.45,1.14.04.12.08.23.12.34l6.04,14.9c.3.73,1.14,1.08,1.87.79.72-.29,1.07-1.13.78-1.86l-3.73-9.2c-.47-1.15-.2-2.47.68-3.35.88-.88,2.2-1.15,3.35-.68,7.49,3.04,14.48,7.24,20.78,12.47,5.55,4.61,7.95,11.85,6.28,18.89-.42,1.76-1.07,3.41-1.91,4.93l30.47-7.06Z"/>
      </g>
    </pattern>
  </defs>
  <rect class="cls-4" x="-2.3" y="0" width="1924.61" height="1080"/>
  <rect class="cls-1" x="-11.67" y="0" width="1931.67" height="1080"/>
</svg>